<?xml version="1.0" encoding="UTF-8" standalone="no"?>
<!DOCTYPE svg PUBLIC "-//W3C//DTD SVG 1.1//EN" "http://www.w3.org/Graphics/SVG/1.1/DTD/svg11.dtd">
<svg width="100%" height="100%" viewBox="0 0 1137 1098" version="1.1" xmlns="http://www.w3.org/2000/svg" xmlns:xlink="http://www.w3.org/1999/xlink" xml:space="preserve" xmlns:serif="http://www.serif.com/" style="fill-rule:evenodd;clip-rule:evenodd;stroke-linejoin:round;stroke-miterlimit:2;">
    <g transform="matrix(1,0,0,1,-423.367,-108.321)">
        <g>
            <g transform="matrix(1.4431,0,0,1.4431,-716.594,-273.988)">
                <circle cx="1372.23" cy="382.784" r="117.863" style="fill:url(#_Radial1);"/>
            </g>
            <g>
                <path d="M1360.34,734.937C1357.53,733.185 1356.67,729.481 1358.43,726.671C1360.18,723.861 1363.88,723.003 1366.69,724.755C1374.24,730.53 1381.09,736.979 1387.27,744.446C1393.06,751.443 1398.21,759.066 1402.77,767.583C1403.01,767.928 1402.91,768.396 1402.57,768.626C1402.22,768.857 1401.75,768.763 1401.52,768.417C1395.6,761.148 1389.31,754.825 1382.5,749.229C1375.57,743.529 1368.22,738.859 1360.34,734.937Z" style="fill:white;fill-opacity:0.5;"/>
                <g transform="matrix(1,0,0,1,-11.0145,29.6953)">
                    <path d="M1360.34,734.937C1357.53,733.185 1356.67,729.481 1358.43,726.671C1360.18,723.861 1363.88,723.003 1366.69,724.755C1374.24,730.53 1381.09,736.979 1387.27,744.446C1393.06,751.443 1398.21,759.066 1402.77,767.583C1403.01,767.928 1402.91,768.396 1402.57,768.626C1402.22,768.857 1401.75,768.763 1401.52,768.417C1395.6,761.148 1389.31,754.825 1382.5,749.229C1375.57,743.529 1368.22,738.859 1360.34,734.937Z" style="fill:white;fill-opacity:0.5;"/>
                </g>
                <g transform="matrix(1,0,0,1,-18.0098,52.2081)">
                    <path d="M1360.34,734.937C1357.53,733.185 1356.67,729.481 1358.43,726.671C1360.18,723.861 1363.88,723.003 1366.69,724.755C1374.24,730.53 1381.09,736.979 1387.27,744.446C1393.06,751.443 1398.21,759.066 1402.77,767.583C1403.01,767.928 1402.91,768.396 1402.57,768.626C1402.22,768.857 1401.75,768.763 1401.52,768.417C1395.6,761.148 1389.31,754.825 1382.5,749.229C1375.57,743.529 1368.22,738.859 1360.34,734.937Z" style="fill:white;fill-opacity:0.5;"/>
                </g>
                <g transform="matrix(1,0,0,1,-28.6792,77.0507)">
                    <path d="M1360.34,734.937C1357.53,733.185 1356.67,729.481 1358.43,726.671C1360.18,723.861 1363.88,723.003 1366.69,724.755C1374.24,730.53 1381.09,736.979 1387.27,744.446C1393.06,751.443 1398.21,759.066 1402.77,767.583C1403.01,767.928 1402.91,768.396 1402.57,768.626C1402.22,768.857 1401.75,768.763 1401.52,768.417C1395.6,761.148 1389.31,754.825 1382.5,749.229C1375.57,743.529 1368.22,738.859 1360.34,734.937Z" style="fill:white;fill-opacity:0.5;"/>
                </g>
                <g transform="matrix(1,0,0,1,-31.529,102.526)">
                    <path d="M1360.34,734.937C1357.53,733.185 1356.67,729.481 1358.43,726.671C1360.18,723.861 1363.88,723.003 1366.69,724.755C1374.24,730.53 1381.09,736.979 1387.27,744.446C1393.06,751.443 1398.21,759.066 1402.77,767.583C1403.01,767.928 1402.91,768.396 1402.57,768.626C1402.22,768.857 1401.75,768.763 1401.52,768.417C1395.6,761.148 1389.31,754.825 1382.5,749.229C1375.57,743.529 1368.22,738.859 1360.34,734.937Z" style="fill:white;fill-opacity:0.5;"/>
                </g>
                <g transform="matrix(0.981497,-0.19148,0.19148,0.981497,-149.006,423.679)">
                    <path d="M1360.34,734.937C1357.53,733.185 1356.67,729.481 1358.43,726.671C1360.18,723.861 1363.88,723.003 1366.69,724.755C1374.24,730.53 1381.09,736.979 1387.27,744.446C1393.06,751.443 1398.21,759.066 1402.77,767.583C1403.01,767.928 1402.91,768.396 1402.57,768.626C1402.22,768.857 1401.75,768.763 1401.52,768.417C1395.6,761.148 1389.31,754.825 1382.5,749.229C1375.57,743.529 1368.22,738.859 1360.34,734.937Z" style="fill:white;fill-opacity:0.5;"/>
                </g>
                <g transform="matrix(-0.965926,-0.258819,0.258819,-0.965926,2552.98,2002.26)">
                    <path d="M1365.89,734.07C1364.17,730.007 1366.07,725.306 1370.13,723.579C1374.19,721.853 1378.89,723.751 1380.62,727.814C1383.69,737.755 1390.65,751.049 1400.08,760.607C1406.71,767.327 1414.24,772.249 1422.37,772.807C1422.92,772.788 1423.39,773.222 1423.41,773.776C1423.43,774.33 1422.99,774.794 1422.44,774.812C1413.4,776.043 1404.04,772.337 1395.24,766.472C1382.43,757.929 1371.65,744.518 1365.89,734.07Z" style="fill:white;fill-opacity:0.5;"/>
                </g>
                <g transform="matrix(-0.965926,-0.258819,0.258819,-0.965926,2598.92,1997.58)">
                    <path d="M1375.25,737.43C1373.95,734.382 1375.38,730.857 1378.42,729.562C1381.47,728.267 1385,729.69 1386.29,732.738C1389.58,742.832 1394.56,754.735 1402.4,763.005C1407.77,768.673 1414.29,772.626 1422.38,773.057C1422.8,773.043 1423.14,773.369 1423.16,773.784C1423.17,774.2 1422.85,774.548 1422.43,774.562C1413.47,775.643 1405.59,772.457 1398.61,767.271C1388.5,759.761 1380.76,747.794 1375.25,737.43Z" style="fill:white;fill-opacity:0.5;"/>
                </g>
                <g transform="matrix(-0.965926,-0.258819,0.258819,-0.965926,2632.24,1951.48)">
                    <path d="M1350.47,734.833C1347.69,731.399 1348.23,726.358 1351.66,723.582C1355.09,720.807 1360.13,721.341 1362.91,724.774C1369.6,734.69 1381.63,748.822 1394.68,759.21C1404.14,766.75 1413.87,772.358 1422.37,772.807C1422.92,772.788 1423.39,773.222 1423.41,773.776C1423.43,774.33 1422.99,774.794 1422.44,774.812C1413.32,775.907 1401.92,771.808 1390.47,765.543C1374.72,756.934 1359.39,744.114 1350.47,734.833Z" style="fill:white;fill-opacity:0.5;"/>
                </g>
                <g transform="matrix(-0.965926,-0.258819,0.258819,-0.965926,2634.29,1980.72)">
                    <path d="M1374.92,742.171C1373.63,739.123 1375.05,735.598 1378.1,734.303C1381.15,733.008 1384.67,734.431 1385.97,737.479C1388.57,745.63 1393.12,753.583 1399.22,759.907C1405.78,766.711 1413.74,771.666 1422.45,773.059C1422.87,773.086 1423.18,773.445 1423.16,773.859C1423.13,774.274 1422.77,774.588 1422.36,774.561C1412.72,774.817 1403.22,771.007 1394.81,765.023C1386.49,759.098 1379.64,750.932 1374.92,742.171Z" style="fill:white;fill-opacity:0.5;"/>
                </g>
                <g transform="matrix(-0.965926,-0.258819,0.258819,-0.965926,2544.74,2033.71)">
                    <path d="M1374.92,742.171C1373.63,739.123 1375.05,735.598 1378.1,734.303C1381.15,733.008 1384.67,734.431 1385.97,737.479C1388.57,745.63 1393.12,753.583 1399.22,759.907C1405.78,766.711 1413.74,771.666 1422.45,773.059C1422.87,773.086 1423.18,773.445 1423.16,773.859C1423.13,774.274 1422.77,774.588 1422.36,774.561C1412.72,774.817 1403.22,771.007 1394.81,765.023C1386.49,759.098 1379.64,750.932 1374.92,742.171Z" style="fill:white;fill-opacity:0.5;"/>
                </g>
                <g transform="matrix(-0.965926,-0.258819,0.258819,-0.965926,2672.68,1969.92)">
                    <path d="M1378.44,747.728C1376.75,744.884 1377.68,741.198 1380.52,739.502C1383.37,737.805 1387.05,738.737 1388.75,741.581C1392.19,749.02 1396.49,755.57 1401.94,760.846C1407.83,766.54 1414.64,770.764 1422.54,773.069C1422.95,773.143 1423.22,773.535 1423.15,773.944C1423.07,774.353 1422.68,774.624 1422.27,774.55C1413.4,773.882 1405.28,770.864 1397.78,766.162C1390.42,761.55 1384.06,755.238 1378.44,747.728Z" style="fill:white;fill-opacity:0.5;"/>
                </g>
            </g>
            <path d="M619.554,1071.43C600.866,1044.99 822.19,994.65 874.863,1019.16C890.676,1026.52 884.698,1077.32 877.26,1071.43C869.027,1064.91 852.259,1064.89 843.664,1068.91C814.291,1082.64 723.977,1130.88 695.956,1131.4C671.91,1131.84 637.873,1097.34 619.554,1071.43Z" style="fill:white;fill-opacity:0.3;"/>
            <path d="M775.735,1075.27C776.722,1074.83 777.203,1073.7 776.833,1072.69C776.464,1071.68 775.372,1071.12 774.336,1071.43C761.341,1075.3 748.044,1078.75 735.684,1080.98C701.621,1087.13 666.518,1089.17 629.981,1086.3C629.29,1086.28 628.749,1085.69 628.774,1085C628.8,1084.31 629.382,1083.77 630.074,1083.79C666.111,1083.62 700.349,1078.81 733.226,1070C746.199,1066.53 758.928,1062.42 771.441,1057.73C772.424,1057.35 772.965,1056.3 772.692,1055.28C772.419,1054.26 771.421,1053.62 770.383,1053.79C759.215,1055.61 748.07,1057.05 736.932,1058.11C708.108,1060.83 679.58,1061.01 651.139,1058.42C650.447,1058.39 649.908,1057.81 649.936,1057.11C649.963,1056.42 650.547,1055.88 651.239,1055.91C679.377,1055.59 707.323,1052.55 735.3,1046.97C762.31,1041.58 789.121,1033.78 815.974,1023.74C821.236,1022.08 826.86,1025 828.525,1030.26C828.653,1030.67 828.754,1031.07 828.829,1031.48C828.868,1031.46 828.908,1031.44 828.947,1031.42C833.908,1029 839.899,1031.06 842.318,1036.03C842.715,1036.84 842.991,1037.68 843.153,1038.53C847.301,1037.43 851.851,1039.11 854.217,1042.95C855.511,1045.05 855.934,1047.44 855.589,1049.7C855.941,1049.54 856.292,1049.38 856.643,1049.23C861.777,1047.2 867.59,1049.72 869.616,1054.86C870.609,1057.38 881.893,1072.53 879.625,1071.45C869.904,1066.84 866.601,1066.8 863.985,1067.83C827.5,1080.34 780.677,1107.14 741.909,1121.99C718.686,1130.88 698.367,1135.55 684.621,1130.74C683.958,1130.54 683.581,1129.84 683.78,1129.17C683.979,1128.51 684.678,1128.13 685.341,1128.33C698.781,1131.7 717.577,1125.32 738.808,1114.88C750.723,1109.02 766.412,1099.98 781.277,1091.19C782.19,1090.65 782.547,1089.51 782.1,1088.55C781.653,1087.59 780.549,1087.13 779.553,1087.49C770.654,1090.88 761.512,1094.12 753.995,1096.03C723.631,1103.73 689.955,1108.33 651.252,1108.64C650.561,1108.67 649.971,1108.14 649.936,1107.45C649.901,1106.76 650.434,1106.17 651.126,1106.13C689.027,1102.6 721.654,1095.33 750.766,1085.24C758.86,1082.44 767.399,1078.97 775.735,1075.27Z" style="fill:url(#_Linear2);"/>
            <path d="M688.683,1042.93C615.539,1066.27 524.538,1127.75 482.274,1118.79C367.098,1094.38 445.805,898.332 507.409,857.629C549.36,829.912 624.8,870.621 676.494,887.934C660.858,994.878 688.683,1042.93 688.683,1042.93Z" style="fill:white;fill-opacity:0.3;"/>
            <path d="M596.846,858.507C590.605,819.255 575.666,774.15 594.217,738.818C617.646,694.196 694.561,620.173 737.418,590.775C769.693,568.636 812.302,559.935 851.36,562.432C890.536,564.936 934.185,584.6 972.474,605.799C893.664,692.597 857.395,832.635 820.149,872.306C774.744,920.665 676.494,887.934 676.494,887.934C653.049,880.082 624.72,867.418 596.846,858.507Z" style="fill:white;fill-opacity:0.3;"/>
            <path d="M585.574,789.601C585.506,788.578 585.448,787.556 585.4,786.537C585.472,786.533 585.545,786.534 585.619,786.541C609.427,787.336 631.002,795.09 652.063,805.907C665.197,812.653 685.681,825.365 700.645,834.903C701.818,835.636 703.354,835.379 704.224,834.303C705.094,833.227 705.024,831.671 704.061,830.677C690.739,816.725 676.068,802.635 655.231,789.581C637.671,778.581 615.94,768.326 587.072,759.44C587.268,758.444 587.481,757.453 587.712,756.466C587.723,756.469 587.735,756.472 587.747,756.475C618.203,762.385 641.494,770.541 660.626,779.851C675.082,786.885 693.297,799.389 708.983,811.035C710.157,811.855 711.765,811.629 712.666,810.516C713.568,809.403 713.454,807.782 712.407,806.805C697.584,792.359 680.442,776.451 668.01,767.281C649.761,753.82 627.689,741.773 598.358,732.35C598.215,732.312 598.082,732.255 597.961,732.182C598.489,731.301 599.035,730.411 599.597,729.513C630.421,736.101 654.136,746.177 674.15,758.003C692.679,768.951 706.985,780.422 720.772,792.441C721.844,793.362 723.441,793.316 724.457,792.333C725.472,791.35 725.572,789.756 724.687,788.654C712.343,772.896 699.987,757.714 684.735,743.813C665.918,726.662 644.069,713.355 615.621,708.283C615.338,708.248 615.084,708.136 614.875,707.972C615.556,707.101 616.245,706.225 616.943,705.346C646.726,707.822 670.594,719.467 691.809,735.226C706.957,746.478 720.624,759.884 733.952,773.674C734.944,774.68 736.54,774.765 737.633,773.87C738.726,772.975 738.958,771.394 738.168,770.223C727.916,754.703 716.726,739.129 702.851,724.81C686.187,707.614 665.766,692.308 638.386,681.151C638.187,681.082 638.012,680.975 637.865,680.841C638.582,680.052 639.302,679.263 640.026,678.473C669.14,687.125 691.577,700.791 710.438,716.673C723.927,728.031 735.477,740.537 746.147,753.229C747.067,754.303 748.653,754.499 749.806,753.68C750.959,752.862 751.298,751.3 750.587,750.077C741.533,733.906 732.369,718.047 721.383,703.731C706.274,684.042 687.844,667.407 661.429,657.148C661.195,657.071 660.993,656.942 660.83,656.779C661.6,656.01 662.371,655.242 663.143,654.476C691.406,662.4 712.135,677.771 729.85,696.513C741.322,708.651 751.338,722.329 761.187,736.359C762.012,737.504 763.572,737.833 764.79,737.121C766.007,736.408 766.484,734.887 765.89,733.607C758.317,716.549 750.521,699.841 739.846,684.653C726.56,665.751 708.92,649.339 681.646,637.666C681.413,637.581 681.214,637.444 681.057,637.274C681.856,636.531 682.656,635.79 683.455,635.054C712.846,644.313 732.775,659.622 748.603,677.79C759.171,689.921 767.781,703.363 775.971,717.24C776.713,718.453 778.261,718.895 779.531,718.257C780.802,717.618 781.371,716.113 780.84,714.794C774.426,698.015 767.583,681.566 758.527,666.636C746.141,646.214 729.678,628.803 704.275,617.545C704.028,617.451 703.82,617.299 703.66,617.11C704.503,616.392 705.342,615.679 706.177,614.974C733.674,624.026 752.581,640.497 767.722,660.371C778.621,674.678 787.052,688.125 795.223,702.848C795.904,704.068 797.395,704.58 798.682,704.034C799.968,703.488 800.636,702.059 800.231,700.722C795.101,683.329 789.515,666.949 779.933,649.025C769.354,629.237 754.445,611.077 730.935,596.154C730.739,596.044 730.576,595.896 730.452,595.725C731.335,595.077 732.208,594.444 733.07,593.827C758.941,606.701 776.271,623.965 789.446,643.257C798.582,656.633 805.59,670.99 811.839,685.607C812.396,686.882 813.821,687.535 815.15,687.126C816.479,686.716 817.289,685.374 817.032,684.007C814.056,666.908 810.528,649.855 803.839,633.312C795.912,613.705 783.675,594.958 762.694,577.78C762.465,577.613 762.297,577.394 762.193,577.151C763.218,576.706 764.248,576.27 765.284,575.845C788.761,591.189 803.42,609.247 813.902,628.566C821.528,642.62 826.795,657.331 831.376,672.205C831.794,673.522 833.129,674.321 834.487,674.066C835.845,673.812 836.8,672.584 836.712,671.205C835.863,654.133 834.325,637.219 829.27,621.153C823.205,601.878 812.108,584.013 790.873,568.684C790.528,568.464 790.301,568.128 790.212,567.759C791.431,567.459 792.653,567.172 793.878,566.896C817.5,580.393 830.967,597.864 839.667,617.193C845.987,631.232 849.823,645.093 852.78,659.735C853.054,661.067 854.266,661.995 855.624,661.912C856.981,661.829 858.071,660.761 858.181,659.405C859.505,645.102 859.836,631.204 856.128,615.656C852.13,598.894 843.367,581.733 825.736,563.463C825.431,563.186 825.266,562.813 825.243,562.432C826.506,562.352 827.767,562.283 829.028,562.227C849.342,578.796 860.386,595.567 866.762,612.387C870.061,621.088 872.373,634.312 873.927,647.643C874.138,649.03 875.369,650.029 876.769,649.95C878.17,649.871 879.28,648.74 879.334,647.338C879.691,635.618 879.701,624.139 879.415,616.444C878.778,599.348 875.311,582.106 866.263,565.175C866.055,564.846 865.989,564.469 866.048,564.113C867.263,564.31 868.482,564.521 869.703,564.745C881.232,580.724 887.231,597.85 890.472,615.213C892.122,624.055 893.436,633.619 894.176,642.89C894.27,644.211 895.297,645.274 896.613,645.414C897.93,645.554 899.157,644.731 899.528,643.46C905.64,622.434 910.342,599.542 909.291,576.758C909.255,576.5 909.287,576.248 909.373,576.02C910.413,576.406 911.452,576.799 912.492,577.198C914.682,587.058 915.565,596.866 915.721,606.729C915.917,619.237 914.719,631.609 913.178,643.623C913.015,644.929 913.804,646.166 915.056,646.568C916.309,646.971 917.671,646.425 918.299,645.269C926.504,630.91 939.416,606.497 941.999,590.657C942.009,590.445 942.061,590.246 942.148,590.067C943.126,590.537 944.103,591.01 945.078,591.486C945.791,603.048 944.128,614.747 941.497,626.458C938.824,638.354 935.068,649.847 931.525,660.518C903.068,746.225 859.133,845.978 829.028,878.041C783.623,926.401 674.15,893.822 674.15,893.822C654.407,887.209 633.543,871.296 610.061,862.974C605.536,860.746 601.009,858.495 596.475,856.226C596.29,855.116 596.1,854.001 595.904,852.883C596.167,852.837 596.445,852.86 596.712,852.964C615.672,858.331 657.532,869.771 682.915,876.631C684.244,876.945 685.601,876.232 686.096,874.959C686.591,873.686 686.072,872.243 684.88,871.577C654.907,854.897 618.648,835.679 590.159,822.773C589.954,821.671 589.751,820.568 589.552,819.465C589.81,819.418 590.084,819.437 590.348,819.534C626.123,829.889 657.868,843.687 691.478,857.079C692.737,857.575 694.169,857.077 694.849,855.907C695.529,854.737 695.252,853.246 694.198,852.398C678.259,839.408 662.677,826.45 646.403,815.486C627.648,802.849 608.046,793.086 585.574,789.601Z" style="fill:url(#_Linear3);"/>
            <path d="M688.683,1042.93C615.539,1066.27 524.538,1127.75 482.274,1118.79C478.962,1118.09 475.812,1117.24 472.816,1116.26C472.847,1116.16 472.888,1116.07 472.938,1115.97C473.403,1115.07 474.508,1114.73 475.404,1115.19C484.59,1119.31 499.384,1115.46 517.507,1107.74C545.615,1095.76 580.949,1074.25 615.066,1054.56C616.018,1054.02 616.42,1052.85 616.006,1051.84C615.593,1050.82 614.492,1050.27 613.431,1050.55C604.854,1052.79 596.298,1055.09 587.754,1057.44C539.772,1070.67 492.678,1085.39 445.625,1100.24C444.695,1099.33 443.797,1098.4 442.931,1097.44C443.101,1097.28 443.305,1097.15 443.536,1097.07C489.172,1077.16 534.857,1057.36 581.597,1038.98C590.32,1035.55 599.064,1032.17 607.838,1028.87C608.886,1028.47 609.468,1027.35 609.186,1026.27C608.905,1025.19 607.851,1024.49 606.745,1024.66C596.718,1026.18 586.749,1027.8 576.824,1029.51C525.329,1038.39 475.481,1049.49 425.716,1060.8C425.663,1060.82 425.611,1060.83 425.558,1060.84C425.322,1059.64 425.106,1058.44 424.909,1057.22C473.425,1040.84 522.05,1024.66 572.54,1010.53C584.391,1007.21 596.319,1004.02 608.352,1000.97C609.443,1000.69 610.148,999.636 609.981,998.524C609.814,997.411 608.83,996.607 607.706,996.665C596.719,997.245 585.731,997.962 574.728,998.793C524.969,1002.55 475.44,1008.47 425.517,1014.02C425.331,1014.05 425.147,1014.05 424.969,1014.03C425.136,1012.78 425.314,1011.53 425.505,1010.28C474.549,999.516 523.17,988.451 572.244,979.489C587.998,976.612 603.749,973.975 619.54,971.641C620.608,971.486 621.403,970.574 621.411,969.494C621.419,968.415 620.638,967.491 619.572,967.32C606.421,965.251 592.958,963.621 579.19,962.365C535.188,958.35 488.64,957.945 440.091,958.791C439.816,958.812 439.551,958.77 439.309,958.678C439.766,957.458 440.231,956.242 440.703,955.028C489.024,948.704 535.503,943.891 579.86,942.913C593.026,942.623 605.963,942.694 618.675,943.171C619.775,943.216 620.737,942.436 620.92,941.351C621.103,940.266 620.45,939.213 619.396,938.896C602.613,933.877 585.709,929.43 568.642,925.425C534.785,917.479 500.724,911.247 466.172,905.644C465.881,905.616 465.613,905.52 465.381,905.375C466.079,904.251 466.781,903.138 467.487,902.038C502.403,903.272 536.92,905.202 571.449,908.832C588.776,910.653 606,912.92 623.175,915.743C624.246,915.922 625.286,915.287 625.616,914.253C625.947,913.219 625.468,912.099 624.492,911.623C611.308,905.208 598.351,899.285 585.514,893.871C556.065,881.45 527.798,871.764 499.657,865.039C499.214,864.966 498.834,864.74 498.563,864.423C499.701,863.432 500.836,862.486 501.968,861.589C530.739,864.311 560.064,869.89 590.921,877.934C601.266,880.631 611.722,883.607 622.332,886.849C623.415,887.18 624.572,886.629 624.997,885.579C625.422,884.53 624.975,883.329 623.967,882.814C619.654,880.606 615.266,878.429 610.845,876.301C588.591,865.587 566.19,856.183 548.888,850.206C548.017,849.997 547.442,849.195 547.488,848.331C588.285,850.148 638.727,875.285 676.494,887.934C676.494,887.934 774.744,920.665 820.149,872.306C865.554,823.946 909.506,626.433 1030.84,558.041C1152.18,489.648 1307.41,628.525 1329.04,666.691C1333.74,674.989 1356.22,661.145 1369.96,688.631C1381.77,712.233 1330.59,953.131 1348.64,962.448C1366.7,971.765 1520.11,874.693 1539.68,887.934C1559.24,901.176 1573.79,1071.63 1539.68,1092.7C1505.57,1113.77 1463.2,1086.5 1463.2,1086.5C1463.2,1086.5 1416.35,1178.74 1348.64,1195.85C1283.48,1212.32 1142.67,1205.1 1085.84,1202.38C1001.51,1198.34 862.274,1039.81 810.155,1030.67C757.985,1021.53 688.683,1042.93 688.683,1042.93Z" style="fill:url(#_Linear4);"/>
            <path d="M1158.26,547.613L1178.62,554.438C1253.1,582.809 1315.86,643.44 1329.04,666.691C1333.74,674.989 1356.22,661.145 1369.96,688.631C1381.77,712.233 1330.59,953.131 1348.64,962.448C1366.7,971.765 1520.11,874.693 1539.68,887.934C1540.6,888.56 1541.52,889.538 1542.41,890.835C1434.88,989.866 1337.72,1071.6 1268.11,1107.39C1197.8,928.429 1170.97,739.62 1158.26,547.613Z" style="fill:url(#_Linear5);"/>
            <path d="M1305.2,637.941C1305.2,637.941 1264.28,417.442 1250.82,364.501C1246.66,348.136 1225.42,338.694 1224.42,320.297C1223.44,302.193 1255.33,257.044 1265.33,257.817C1275.34,258.59 1293.69,302.375 1295.3,320.297C1296.63,335.036 1272.15,347.126 1273.66,361.847C1279.59,419.888 1330.9,668.546 1330.9,668.546" style="fill:url(#_Linear6);"/>
            <g transform="matrix(1,0,0,1,-4,-10)">
                <circle cx="1298.52" cy="689.404" r="20.858" style="fill:url(#_Radial7);"/>
            </g>
            <g transform="matrix(0.311746,0,0,0.311746,881.32,457.003)">
                <circle cx="1298.52" cy="689.404" r="20.858" style="fill:url(#_Radial8);"/>
            </g>
            <path d="M1024,679.718C1009.37,662.03 1024.07,633.042 1018.66,619.337C1014.4,608.545 1002.81,600.356 991.568,597.489C962.87,590.173 862.42,563.837 845.469,579.211C813.036,608.629 792.565,733.321 791.692,768C791.256,785.299 824.14,786.208 841.232,783.513C869.486,779.057 924.593,741.254 961.214,741.266" style="fill:white;fill-opacity:0.3;"/>
            <path d="M967.32,741.244C928.292,738.818 877.414,778.382 844.876,784.458C821.501,788.822 803.263,787.105 792.772,774.317C792.59,774.12 792.602,773.813 792.799,773.631C792.996,773.449 793.303,773.462 793.485,773.658C804.654,784.422 821.831,784.013 843.124,777.392C860.53,771.98 880.494,762.455 902.037,751.278C902.762,750.902 903.117,750.065 902.885,749.283C902.653,748.501 901.898,747.993 901.086,748.074C857.616,752.313 804.977,755.538 792.657,753.935C792.39,753.917 792.187,753.685 792.205,753.418C792.224,753.151 792.455,752.948 792.722,752.967C804.691,753.035 853.648,743.948 895.119,734.733C895.953,734.547 896.519,733.772 896.443,732.921C896.367,732.07 895.672,731.408 894.819,731.372C889.345,731.144 883.823,730.921 878.25,730.704C851.79,729.672 824.5,728.777 795.978,728.123C795.71,728.134 795.484,727.925 795.473,727.658C795.462,727.39 795.67,727.164 795.938,727.153C824.344,724.164 851.557,721.573 877.964,719.222C883.408,718.737 888.805,718.264 894.157,717.802C894.995,717.73 895.654,717.057 895.71,716.218C895.765,715.38 895.2,714.626 894.379,714.444C884.509,712.265 874.683,710.182 864.845,708.205C843.712,703.957 822.759,700.226 801.308,697.098C801.041,697.077 800.841,696.843 800.862,696.576C800.884,696.309 801.118,696.109 801.385,696.131C823.15,696.448 844.497,697.432 866.091,698.905C875.064,699.518 884.039,700.215 893.053,700.985C893.889,701.057 894.652,700.509 894.852,699.694C895.051,698.879 894.627,698.04 893.852,697.718C874.337,689.779 832.28,672.745 808.688,663.559C808.433,663.478 808.291,663.205 808.372,662.949C808.453,662.694 808.726,662.552 808.981,662.633C833.451,668.66 876.348,679.832 896.371,685.076C897.185,685.297 898.038,684.887 898.375,684.114C898.712,683.341 898.432,682.437 897.717,681.99C874.678,667.592 817.72,631.997 817.72,631.997C817.484,631.87 817.396,631.575 817.523,631.339C817.651,631.103 817.946,631.015 818.181,631.143L899.264,668.513C900.042,668.871 900.966,668.595 901.42,667.869C901.874,667.142 901.717,666.191 901.054,665.649L827.862,605.816C827.645,605.66 827.595,605.356 827.752,605.139C827.908,604.922 828.212,604.872 828.429,605.029L912.176,657.803C912.887,658.252 913.82,658.114 914.371,657.478C914.922,656.842 914.925,655.899 914.379,655.259C903.545,642.551 892.626,629.866 881.246,617.337C869.662,604.585 857.695,592.088 844.823,579.89C844.617,579.718 844.591,579.412 844.763,579.207C844.935,579.001 845.242,578.975 845.447,579.147C859.77,589.768 873.225,600.797 886.33,612.127C898.542,622.686 910.354,633.437 922.076,644.227C922.711,644.812 923.684,644.829 924.339,644.266C924.994,643.703 925.124,642.739 924.64,642.023C923.623,640.515 922.6,639.008 921.57,637.503C906.896,616.071 891.025,595.206 872.97,574.976C872.779,574.788 872.776,574.481 872.963,574.29C873.151,574.098 873.459,574.096 873.65,574.283C894.411,592.127 913.061,610.906 930.598,630.403C931.331,631.219 932.062,632.035 932.791,632.853C933.366,633.497 934.332,633.61 935.039,633.114C935.746,632.618 935.969,631.671 935.559,630.912C927.033,615.62 913.263,591.451 904.668,578.58C904.503,578.369 904.54,578.064 904.75,577.898C904.961,577.733 905.266,577.77 905.432,577.981C921.21,595.196 935.68,612.924 949.198,631.411L949.2,631.415C949.695,632.093 950.61,632.309 951.356,631.924C952.102,631.539 952.455,630.667 952.189,629.871C947.883,617.251 940.697,596.568 935.829,584.457C935.707,584.218 935.802,583.925 936.041,583.804C936.279,583.682 936.572,583.777 936.694,584.015C943.936,595.516 955.324,615.735 961.822,627.414C962.223,628.146 963.096,628.479 963.882,628.201C964.669,627.923 965.138,627.115 964.99,626.294C962.752,613.935 960.441,601.693 957.983,589.392C957.904,589.136 958.048,588.864 958.304,588.786C958.56,588.707 958.832,588.851 958.911,589.107C963.993,601.149 968.906,613.159 973.771,625.318C974.082,626.098 974.916,626.535 975.735,626.346C976.554,626.158 977.112,625.399 977.05,624.561C976.118,612.055 974.729,593.425 974.729,593.425C974.68,593.162 974.854,592.908 975.117,592.859C975.38,592.809 975.634,592.983 975.683,593.246L984.794,623.198C985.037,623.996 985.822,624.501 986.648,624.39C987.475,624.279 988.099,623.586 988.124,622.753L988.877,596.969C988.853,596.702 989.05,596.466 989.317,596.442C989.584,596.418 989.82,596.615 989.844,596.882L995.307,622.821C995.478,623.639 996.217,624.211 997.051,624.173C997.886,624.135 998.569,623.497 998.664,622.667C999.481,615.6 1000.22,608.489 1000.78,601.29C1000.76,601.022 1000.97,600.794 1001.24,600.781C1001.5,600.768 1001.73,600.974 1001.75,601.242C1003.09,608.739 1004.21,616.192 1005.25,623.621C1005.36,624.463 1006.09,625.09 1006.94,625.088C1007.79,625.087 1008.5,624.458 1008.62,623.615C1009.42,618.085 1010.21,611.902 1010.41,608.2C1010.38,607.933 1010.58,607.697 1010.85,607.674C1011.12,607.65 1011.35,607.848 1011.37,608.114C1012.4,612.499 1013.6,620.741 1014.46,627.223C1014.57,628.046 1015.26,628.67 1016.09,628.7C1016.92,628.73 1017.65,628.157 1017.81,627.345C1018.22,625.438 1018.57,623.527 1018.86,621.605C1018.85,621.337 1019.07,621.114 1019.33,621.107C1019.6,621.1 1019.83,621.312 1019.83,621.58C1022.56,634.97 1017.54,673.277 1026.9,683.238C1044.49,701.973 1083.85,726.837 1125.4,733.985L1061.42,797.918C1044.67,758.525 1003.41,743.488 967.32,741.244Z" style="fill:url(#_Linear9);"/>
            <path d="M1214.09,937.164C1214.09,937.164 1139.8,914.484 1134.43,887.288C1129.06,860.092 1181.85,773.988 1181.85,773.988C1190.16,828.931 1200.67,883.378 1214.09,937.164Z" style="fill:url(#_Linear10);"/>
            <path d="M1252.73,1066.16C1156.55,1046.22 1076.7,995.209 1008.02,922.94L1197.69,864.242C1211.46,932.585 1229.32,999.999 1252.73,1066.16Z" style="fill:url(#_Linear11);"/>
            <path d="M1239.05,1025.42C1150.07,985.693 1084.34,918.423 1042.7,822.618L1194.55,848.227C1206.02,908.054 1220.53,967.192 1239.05,1025.42Z" style="fill:url(#_Linear12);"/>
        </g>
    </g>
    <defs>
        <radialGradient id="_Radial1" cx="0" cy="0" r="1" gradientUnits="userSpaceOnUse" gradientTransform="matrix(109.767,0,0,109.767,1372.23,382.784)"><stop offset="0" style="stop-color:rgb(184,207,238);stop-opacity:1"/><stop offset="1" style="stop-color:rgb(120,165,223);stop-opacity:0"/></radialGradient>
        <linearGradient id="_Linear2" x1="0" y1="0" x2="1" y2="0" gradientUnits="userSpaceOnUse" gradientTransform="matrix(-126.399,95.1613,-95.1613,-126.399,827.822,1037.36)"><stop offset="0" style="stop-color:rgb(61,41,29);stop-opacity:1"/><stop offset="0.41" style="stop-color:rgb(79,53,38);stop-opacity:1"/><stop offset="1" style="stop-color:rgb(83,56,40);stop-opacity:1"/></linearGradient>
        <linearGradient id="_Linear3" x1="0" y1="0" x2="1" y2="0" gradientUnits="userSpaceOnUse" gradientTransform="matrix(108.153,151.331,-151.331,108.153,723.22,706.161)"><stop offset="0" style="stop-color:rgb(83,56,40);stop-opacity:1"/><stop offset="0.54" style="stop-color:rgb(79,52,36);stop-opacity:1"/><stop offset="1" style="stop-color:rgb(63,39,24);stop-opacity:1"/></linearGradient>
        <linearGradient id="_Linear4" x1="0" y1="0" x2="1" y2="0" gradientUnits="userSpaceOnUse" gradientTransform="matrix(743.608,-37.9401,37.9401,743.608,567.786,980.309)"><stop offset="0" style="stop-color:rgb(98,60,38);stop-opacity:1"/><stop offset="0.3" style="stop-color:rgb(68,40,25);stop-opacity:1"/><stop offset="1" style="stop-color:rgb(98,60,38);stop-opacity:1"/></linearGradient>
        <linearGradient id="_Linear5" x1="0" y1="0" x2="1" y2="0" gradientUnits="userSpaceOnUse" gradientTransform="matrix(-57.9685,424.239,-424.239,-57.9685,1352.21,645.175)"><stop offset="0" style="stop-color:rgb(131,103,76);stop-opacity:0"/><stop offset="1" style="stop-color:rgb(131,103,76);stop-opacity:1"/></linearGradient>
        <linearGradient id="_Linear6" x1="0" y1="0" x2="1" y2="0" gradientUnits="userSpaceOnUse" gradientTransform="matrix(25.3415,389.365,-389.365,25.3415,1264.3,264.736)"><stop offset="0" style="stop-color:rgb(225,235,248);stop-opacity:1"/><stop offset="0.07" style="stop-color:rgb(99,152,220);stop-opacity:1"/><stop offset="0.11" style="stop-color:rgb(80,123,178);stop-opacity:1"/><stop offset="0.13" style="stop-color:rgb(40,61,88);stop-opacity:1"/><stop offset="0.14" style="stop-color:black;stop-opacity:1"/><stop offset="0.21" style="stop-color:rgb(78,72,69);stop-opacity:1"/><stop offset="0.32" style="stop-color:rgb(91,84,81);stop-opacity:1"/><stop offset="0.71" style="stop-color:rgb(92,79,73);stop-opacity:1"/><stop offset="0.86" style="stop-color:rgb(95,69,55);stop-opacity:1"/><stop offset="1" style="stop-color:rgb(98,60,38);stop-opacity:1"/></linearGradient>
        <radialGradient id="_Radial7" cx="0" cy="0" r="1" gradientUnits="userSpaceOnUse" gradientTransform="matrix(20.74,0,0,20.74,1298.52,689.404)"><stop offset="0" style="stop-color:black;stop-opacity:1"/><stop offset="0.38" style="stop-color:rgb(15,28,46);stop-opacity:1"/><stop offset="0.72" style="stop-color:rgb(66,126,205);stop-opacity:1"/><stop offset="0.89" style="stop-color:rgb(69,114,177);stop-opacity:1"/><stop offset="0.95" style="stop-color:rgb(76,86,111);stop-opacity:1"/><stop offset="1" style="stop-color:rgb(83,56,40);stop-opacity:1"/></radialGradient>
        <radialGradient id="_Radial8" cx="0" cy="0" r="1" gradientUnits="userSpaceOnUse" gradientTransform="matrix(19.4251,0,0,19.4251,1298.52,689.404)"><stop offset="0" style="stop-color:white;stop-opacity:1"/><stop offset="1" style="stop-color:white;stop-opacity:0"/></radialGradient>
        <linearGradient id="_Linear9" x1="0" y1="0" x2="1" y2="0" gradientUnits="userSpaceOnUse" gradientTransform="matrix(161.326,97.4436,-97.4436,161.326,931.525,660.518)"><stop offset="0" style="stop-color:rgb(123,75,48);stop-opacity:1"/><stop offset="0.5" style="stop-color:rgb(110,68,43);stop-opacity:1"/><stop offset="1" style="stop-color:rgb(98,60,38);stop-opacity:0"/></linearGradient>
        <linearGradient id="_Linear10" x1="0" y1="0" x2="1" y2="0" gradientUnits="userSpaceOnUse" gradientTransform="matrix(60.3507,-60.7868,60.7868,60.3507,1150.6,907.649)"><stop offset="0" style="stop-color:rgb(131,103,76);stop-opacity:0.7"/><stop offset="1" style="stop-color:rgb(131,103,76);stop-opacity:0"/></linearGradient>
        <linearGradient id="_Linear11" x1="0" y1="0" x2="1" y2="0" gradientUnits="userSpaceOnUse" gradientTransform="matrix(64.4751,-116.655,116.655,64.4751,1143.2,1027.11)"><stop offset="0" style="stop-color:rgb(131,103,76);stop-opacity:0.7"/><stop offset="1" style="stop-color:rgb(131,103,76);stop-opacity:0"/></linearGradient>
        <linearGradient id="_Linear12" x1="0" y1="0" x2="1" y2="0" gradientUnits="userSpaceOnUse" gradientTransform="matrix(83.9397,-72.795,72.795,83.9397,1127.06,949.043)"><stop offset="0" style="stop-color:rgb(131,103,76);stop-opacity:0.7"/><stop offset="1" style="stop-color:rgb(131,103,76);stop-opacity:0"/></linearGradient>
    </defs>
</svg>
