<?xml version="1.0" encoding="UTF-8" standalone="no"?>
<!DOCTYPE svg PUBLIC "-//W3C//DTD SVG 1.1//EN" "http://www.w3.org/Graphics/SVG/1.1/DTD/svg11.dtd">
<svg width="100%" height="100%" viewBox="0 0 661 576" version="1.1" xmlns="http://www.w3.org/2000/svg" xmlns:xlink="http://www.w3.org/1999/xlink" xml:space="preserve" xmlns:serif="http://www.serif.com/" style="fill-rule:evenodd;clip-rule:evenodd;stroke-linecap:round;stroke-linejoin:round;stroke-miterlimit:1.5;">
    <g transform="matrix(1,0,0,1,-658.63,-440.468)">
        <g transform="matrix(0.584541,0.811364,-0.811364,0.584541,1066.92,-481.331)">
            <g transform="matrix(0.965311,0.261103,-0.261103,0.965311,222.204,-315.343)">
                <path d="M1213.5,685.312C1202.64,703.049 1185.32,721.205 1179.89,736.906C1175.43,749.821 1179.14,773.184 1178.24,781.236C1177.91,784.242 1173.08,787.835 1170.77,788.044C1168.15,788.282 1160.92,786.816 1160.04,784.075C1157.45,776.023 1158.69,750.403 1162.07,734.493C1165.67,717.573 1179.01,703.049 1188.5,685.312" style="fill:rgb(38,38,38);stroke:rgb(26,26,26);stroke-width:1px;"/>
                <path d="M1177.33,783.441C1177.33,783.441 1180.93,784.316 1181.62,785.007C1182.62,786.001 1183.53,790.903 1183.46,792.229C1183.43,792.926 1183.66,795.099 1182.46,798.08C1182.03,799.164 1180.8,799.621 1180.31,800.84C1179.72,802.319 1180.05,803.687 1179.29,805.177C1178.88,805.983 1177.26,806.796 1176.83,807.577C1176.46,808.256 1177.03,809.665 1176.2,810.96C1175.42,812.165 1173.4,811.976 1173.07,812.464C1171.72,814.442 1171.85,814.233 1169.8,814.177C1166.28,814.081 1159.03,799.244 1161.9,785.995" style="fill:rgb(198,158,115);"/>
            </g>
            <path d="M1208.39,644.126C1213.99,647.793 1217.16,646.186 1216.72,641.166L1236.25,664.314C1225.22,658.71 1219.75,657.519 1215.53,664.943L1208.39,644.126Z" style="fill:rgb(198,158,115);"/>
            <path d="M1011.82,728.478C992.753,749.199 965.977,780.284 950.953,796.505C946.941,800.837 933.386,802.526 928.946,806.692C915.539,819.276 888.158,859.829 875.683,869.38C869.735,873.934 856.64,861.424 850.359,865.054C833.247,874.946 863.57,906.159 803.375,965.593C778.52,990.134 709.358,1005.4 710.89,1014.14C712.423,1022.88 779.285,1006.8 816.366,975.055C854.154,942.71 870.355,910.876 896.369,886.219C918.552,865.194 955.194,841.257 970.506,832.264C975.605,829.27 983.322,830.499 988.244,827.223C1007.79,814.21 1049.07,785.334 1084.66,760.541C1108.21,744.132 1134.23,735.258 1147.39,728.478C1167.86,717.942 1211.71,688.18 1213.91,684.488C1216.1,680.796 1217.77,677.048 1217.77,672.126C1217.77,664.954 1213.52,640.804 1209.38,639.566C1193.96,634.954 1168.37,635.325 1162.64,637.439C1128.41,650.059 1057.08,683.617 1014.14,706.064C1001.8,712.516 1006.29,717.083 988.244,723.239C959.478,733.054 941.823,750.478 928.946,750.194C921.68,750.034 924.591,733.202 916.654,723.239C901.164,703.797 883.768,673.102 880.245,658.279C877.506,646.758 888.155,639.786 882.945,629.152C876.964,616.942 701.213,593.76 701.213,604.843C701.213,610.11 778.904,610.26 816.366,631.577C835.94,642.716 849.26,662.087 856.095,675.905C869.033,702.061 885.521,773.059 901.174,793.691C907.583,802.138 934.169,797.616 950.953,796.505" style="fill:rgb(38,38,38);stroke:rgb(26,26,26);stroke-width:1px;"/>
            <path d="M1151.27,617.588C1164.91,611.135 1165.17,599.531 1168.04,591.766C1175.37,571.921 1203.96,582.794 1195.02,594.064C1188.95,601.705 1172.94,612.783 1179.56,622.916" style="fill:none;stroke:rgb(51,51,51);stroke-width:4px;"/>
            <g transform="matrix(0.0791731,-0.996861,0.996861,0.0791731,421.857,1822.08)">
                <path d="M1213.5,685.312C1202.64,703.049 1185.32,721.205 1179.89,736.906C1175.43,749.821 1179.14,773.184 1178.24,781.236C1177.91,784.242 1173.08,787.835 1170.77,788.044C1168.15,788.282 1160.92,786.816 1160.04,784.075C1157.45,776.023 1158.69,750.403 1162.07,734.493C1165.67,717.573 1179.01,703.049 1188.5,685.312" style="fill:rgb(38,38,38);stroke:rgb(26,26,26);stroke-width:1px;"/>
                <path d="M1177.33,783.441C1177.33,783.441 1180.93,784.316 1181.62,785.007C1182.62,786.001 1183.53,790.903 1183.46,792.229C1183.43,792.926 1183.66,795.099 1182.46,798.08C1182.03,799.164 1180.8,799.621 1180.31,800.84C1179.72,802.319 1180.05,803.687 1179.29,805.177C1178.88,805.983 1177.26,806.796 1176.83,807.577C1176.46,808.256 1177.03,809.665 1176.2,810.96C1175.42,812.165 1173.4,811.976 1173.07,812.464C1171.72,814.442 1171.85,814.233 1169.8,814.177C1166.28,814.081 1159.03,799.244 1161.9,785.995" style="fill:rgb(198,158,115);"/>
            </g>
            <g transform="matrix(1.06133,0,0,1.03814,-82.3056,-28.5976)">
                <path d="M1250.33,599.784C1266.49,599.784 1279.61,611.425 1279.61,631.887C1279.61,652.349 1275.9,673.933 1259.75,673.933C1243.59,673.933 1221.06,652.349 1221.06,631.887C1221.06,611.425 1234.18,599.784 1250.33,599.784Z" style="fill:rgb(198,158,115);"/>
            </g>
            <g transform="matrix(1.06133,0,0,1.03814,-74.2831,-24.4643)">
                <path d="M1282.71,623.509L1264.73,620.426L1264.73,642.181L1282.71,640.71L1282.71,623.509Z" style="fill:rgb(38,38,38);stroke:black;stroke-width:1.91px;"/>
            </g>
            <g transform="matrix(1.06133,0,0,1.03814,-74.2831,-22.6596)">
                <rect x="1211.12" y="621.856" width="53.61" height="7.709"/>
            </g>
            <g transform="matrix(1.06133,0,0,1.03814,-67.8039,-22.6596)">
                <path d="M1231.82,629.565C1231.87,626.663 1229.24,623.181 1225.64,625.71C1223.22,627.413 1224.59,632.276 1225.64,634.428C1227.03,637.258 1229.36,637.808 1231.82,637.749" style="fill:rgb(198,158,115);"/>
            </g>
            <path d="M1264.77,658.08C1220.21,667.207 1231.18,600.883 1195.02,619.627" style="fill:none;stroke:rgb(51,51,51);stroke-width:4px;"/>
            <g transform="matrix(0.893558,-0.448948,0.460111,0.915775,-158.377,590.907)">
                <rect x="1177.46" y="613.999" width="18.983" height="44.081" style="fill:rgb(38,38,38);"/>
            </g>
            <path d="M1184.93,637.61C1199.47,630.891 1208.96,620.955 1208.37,612.916C1208.11,609.355 1201.25,605.553 1197.68,605.73C1188.21,606.201 1181.98,613.092 1186.11,619.627" style="fill:none;stroke:rgb(51,51,51);stroke-width:4px;"/>
            <path d="M1272.09,659.53L1275.1,661.242L1278.16,655.863L1284.91,659.698L1276.97,673.692L1270.21,669.857L1273.27,664.478L1270.17,662.718L1268.74,665.077L1260.8,665.077L1268.74,651.082L1273.48,657.216L1272.09,659.53Z" style="fill:rgb(38,38,38);stroke:black;stroke-width:2px;"/>
            <g transform="matrix(0.998966,-0.381746,0.381746,0.998966,-247.337,462.944)">
                <path d="M1144.15,576.04C1158.44,576.04 1170.04,587.638 1170.04,601.924C1170.04,616.209 1158.44,627.807 1144.15,627.807L979.215,627.807L979.215,576.04L1144.15,576.04Z" style="fill:url(#_Linear1);"/>
                <g transform="matrix(0.441464,0,-2.77556e-17,1,541.456,0)">
                    <ellipse cx="991.607" cy="601.924" rx="12.393" ry="25.883" style="fill:rgb(109,109,109);"/>
                </g>
            </g>
            <g transform="matrix(0.954895,-0.481496,0.481496,0.954895,-221.555,627.324)">
                <path d="M1144.15,576.04C1158.44,576.04 1170.04,587.638 1170.04,601.924C1170.04,616.209 1158.44,627.807 1144.15,627.807L979.215,627.807L979.215,576.04L1144.15,576.04Z" style="fill:url(#_Linear2);"/>
                <g transform="matrix(1,0,0,1,-12.3927,0)">
                    <ellipse cx="991.607" cy="601.924" rx="12.393" ry="25.883" style="fill:rgb(109,109,109);"/>
                </g>
            </g>
        </g>
    </g>
    <defs>
        <linearGradient id="_Linear1" x1="0" y1="0" x2="1" y2="0" gradientUnits="userSpaceOnUse" gradientTransform="matrix(-1.92419,-111.501,111.501,-1.92419,1059.78,658.679)"><stop offset="0" style="stop-color:black;stop-opacity:1"/><stop offset="0.5" style="stop-color:rgb(149,149,149);stop-opacity:1"/><stop offset="1" style="stop-color:white;stop-opacity:1"/></linearGradient>
        <linearGradient id="_Linear2" x1="0" y1="0" x2="1" y2="0" gradientUnits="userSpaceOnUse" gradientTransform="matrix(3.97869,-85.6059,85.6059,3.97869,1086.59,641.158)"><stop offset="0" style="stop-color:black;stop-opacity:1"/><stop offset="1" style="stop-color:white;stop-opacity:1"/></linearGradient>
    </defs>
</svg>
