<?xml version="1.0" encoding="UTF-8" standalone="no"?>
<!DOCTYPE svg PUBLIC "-//W3C//DTD SVG 1.1//EN" "http://www.w3.org/Graphics/SVG/1.1/DTD/svg11.dtd">
<svg width="100%" height="100%" viewBox="0 0 702 866" version="1.1" xmlns="http://www.w3.org/2000/svg" xmlns:xlink="http://www.w3.org/1999/xlink" xml:space="preserve" xmlns:serif="http://www.serif.com/" style="fill-rule:evenodd;clip-rule:evenodd;stroke-linejoin:round;stroke-miterlimit:2;">
    <g transform="matrix(1,0,0,1,-651.43,-285.112)">
        <g>
            <path d="M1002,1150.95C1030.87,1150.95 1110.71,783.142 1088.9,728.392C1088.1,726.442 1088.09,724.253 1088.88,722.297C1096.58,702.504 1090.82,653.072 1076.95,631.123C1075.58,629.107 1075.2,626.579 1075.91,624.248C1081.49,604.928 1077.48,581.081 1085.97,570.277C1094.52,559.394 1107.33,539.091 1107.33,498.392C1107.33,457.693 1086.4,440.159 1082.97,420.571C1079.72,401.981 1099.67,336.312 1101.46,292.047C1101.48,290.944 1100.81,289.945 1099.79,289.535C1098.77,289.124 1097.6,289.388 1096.85,290.197C1071.94,319.672 1060.6,375.94 1032.42,417.247C1027.68,424.207 1018.3,424.592 1011.38,425.623C1007.33,426.229 1003.95,427.98 1002,427.98C1000.05,427.98 996.675,426.229 992.615,425.623C985.698,424.592 976.323,424.207 971.577,417.247C943.405,375.94 932.059,319.672 907.144,290.208C906.398,289.403 905.234,289.141 904.215,289.549C903.197,289.957 902.535,290.95 902.552,292.047C904.325,336.312 924.28,401.981 921.029,420.571C917.602,440.159 896.669,457.693 896.669,498.392C896.669,539.091 909.478,559.394 918.029,570.277C926.516,581.081 922.507,604.928 928.108,624.243C928.821,626.579 928.437,629.111 927.065,631.131C913.176,653.072 907.423,702.504 915.122,722.296C915.913,724.253 915.905,726.442 915.098,728.393C893.287,783.142 973.131,1150.95 1002,1150.95Z" style="fill:url(#_Radial1);"/>
            <path d="M1078.99,605.609C1099.43,590.33 1162.33,604.273 1227.26,616.329C1269.78,624.225 1341.16,605.455 1351.91,620.033C1360.33,631.463 1286.45,739.206 1246.94,766.376C1214.68,788.566 1129.16,801.215 1103.59,772.845C1099.37,768.164 1095.73,762.198 1092.59,755.284C1092.37,743.382 1091.2,734.154 1088.9,728.392C1088.1,726.442 1088.09,724.253 1088.88,722.297C1096.58,702.504 1090.82,653.072 1076.95,631.123C1075.58,629.107 1075.2,626.579 1075.91,624.248C1077.63,618.293 1078.44,611.909 1078.99,605.609Z" style="fill:url(#_Radial2);"/>
            <g transform="matrix(-1,0,0,1,2004,0)">
                <path d="M1078.99,605.609C1099.43,590.33 1162.33,604.273 1227.26,616.329C1269.78,624.225 1341.16,605.455 1351.91,620.033C1360.33,631.463 1286.45,739.206 1246.94,766.376C1214.68,788.566 1129.16,801.215 1103.59,772.845C1099.37,768.164 1095.73,762.198 1092.59,755.284C1092.37,743.382 1091.2,734.154 1088.9,728.392C1088.1,726.442 1088.09,724.253 1088.88,722.297C1096.58,702.504 1090.82,653.072 1076.95,631.123C1075.58,629.107 1075.2,626.579 1075.91,624.248C1077.63,618.293 1078.44,611.909 1078.99,605.609Z" style="fill:url(#_Radial3);"/>
            </g>
            <path d="M956.52,695.114C955.152,686.607 950.255,671.439 946.951,661.745C946.411,660.096 946.848,658.283 948.081,657.061C949.314,655.84 951.132,655.42 952.776,655.976C967.686,660.809 984.38,663.512 1002,663.512C1019.62,663.512 1036.31,660.809 1051.23,655.984C1052.87,655.429 1054.68,655.848 1055.91,657.067C1057.14,658.286 1057.58,660.096 1057.04,661.743C1053.75,671.439 1048.85,686.607 1047.48,695.114C1045.54,707.202 1045.68,719.734 1047.48,731.846C1049.58,745.984 1060.06,761.774 1060.06,779.943C1060.06,822.665 1034.04,857.35 1002,857.35C969.956,857.35 943.941,822.665 943.941,779.943C943.941,761.774 954.423,745.984 956.52,731.846C958.316,719.734 958.463,707.202 956.52,695.114Z" style="fill:url(#_Radial4);"/>
            <path d="M1015.73,662.959C1011.23,663.324 1006.64,663.512 1002,663.512C997.355,663.512 992.774,663.324 988.274,662.959C1003.59,664.043 987.886,641.296 987.886,622.748C987.886,604.046 961.155,600.288 961.155,575.203C961.155,550.117 977.104,544.471 977.104,532.794C977.104,521.117 939.092,504.029 939.092,480.707C939.092,457.385 980.827,434.637 987.886,434.637C994.946,434.637 995.332,439.833 1002,439.833C1008.67,439.833 1009.05,434.637 1016.11,434.637C1023.17,434.637 1064.91,457.385 1064.91,480.707C1064.91,504.029 1026.9,521.117 1026.9,532.794C1026.9,544.471 1042.85,550.117 1042.85,575.203C1042.85,600.288 1016.11,604.046 1016.11,622.748C1016.11,641.296 1000.41,664.042 1015.73,662.959ZM987.886,662.927C987.485,662.894 987.084,662.859 986.684,662.822C987.052,662.852 987.452,662.887 987.886,662.927ZM1017.32,662.822C1016.92,662.859 1016.52,662.894 1016.11,662.927C1016.55,662.886 1016.95,662.852 1017.32,662.822Z" style="fill:url(#_Radial5);"/>
        </g>
    </g>
    <defs>
        <radialGradient id="_Radial1" cx="0" cy="0" r="1" gradientUnits="userSpaceOnUse" gradientTransform="matrix(1.44471e-14,235.939,-235.939,1.44471e-14,1002,595.846)"><stop offset="0" style="stop-color:white;stop-opacity:1"/><stop offset="1" style="stop-color:white;stop-opacity:0.2"/></radialGradient>
        <radialGradient id="_Radial2" cx="0" cy="0" r="1" gradientUnits="userSpaceOnUse" gradientTransform="matrix(23.3073,111.61,-170.807,35.6692,1170.69,685.305)"><stop offset="0" style="stop-color:white;stop-opacity:0.7"/><stop offset="1" style="stop-color:white;stop-opacity:0.2"/></radialGradient>
        <radialGradient id="_Radial3" cx="0" cy="0" r="1" gradientUnits="userSpaceOnUse" gradientTransform="matrix(23.3073,111.61,-170.807,35.6692,1170.69,685.305)"><stop offset="0" style="stop-color:white;stop-opacity:0.7"/><stop offset="1" style="stop-color:white;stop-opacity:0.2"/></radialGradient>
        <radialGradient id="_Radial4" cx="0" cy="0" r="1" gradientUnits="userSpaceOnUse" gradientTransform="matrix(-103.139,1.26309e-14,-1.70252e-14,-139.021,1002,768)"><stop offset="0" style="stop-color:rgb(255,197,39);stop-opacity:0.7"/><stop offset="0.5" style="stop-color:rgb(252,92,92);stop-opacity:0.7"/><stop offset="1" style="stop-color:rgb(252,92,92);stop-opacity:0.56"/></radialGradient>
        <radialGradient id="_Radial5" cx="0" cy="0" r="1" gradientUnits="userSpaceOnUse" gradientTransform="matrix(-91.7238,1.12329e-14,-1.22152e-14,-99.7445,1002,496.127)"><stop offset="0" style="stop-color:rgb(255,197,39);stop-opacity:0.7"/><stop offset="0.5" style="stop-color:rgb(252,92,92);stop-opacity:0.7"/><stop offset="1" style="stop-color:rgb(252,92,92);stop-opacity:0.63"/></radialGradient>
    </defs>
</svg>
