<?xml version="1.0" encoding="UTF-8" standalone="no"?>
<!DOCTYPE svg PUBLIC "-//W3C//DTD SVG 1.1//EN" "http://www.w3.org/Graphics/SVG/1.1/DTD/svg11.dtd">
<svg width="100%" height="100%" viewBox="0 0 1223 1181" version="1.1" xmlns="http://www.w3.org/2000/svg" xmlns:xlink="http://www.w3.org/1999/xlink" xml:space="preserve" xmlns:serif="http://www.serif.com/" style="fill-rule:evenodd;clip-rule:evenodd;stroke-linecap:round;stroke-linejoin:round;stroke-miterlimit:1.5;">
    <g transform="matrix(1,0,0,1,-272.068,-163.085)">
        <g>
            <g transform="matrix(1,0,0,-1,4.79957,638.547)">
                <path d="M902.02,274.588C902.02,274.588 918.969,258.557 951.186,251.848C952.459,251.586 953.781,251.94 954.754,252.801C955.727,253.663 956.237,254.933 956.131,256.228C955.835,261.056 956.548,269.104 961.412,280.487C962.436,282.886 971.28,282.024 971.949,284.686C972.577,287.187 968.214,292.133 961.412,294.615" style="fill:url(#_Linear1);"/>
            </g>
            <path d="M958.641,814.828C949.863,840.482 470.63,846.61 470.63,581.292C470.63,347.716 1024.53,289.082 1094.39,269.039C1125.74,260.046 1158.18,217.635 1190.51,195.169C1234.56,164.559 1274.51,153.385 1292.92,172.523C1295.29,174.984 1284.96,181.642 1274.44,180.46C1266.14,179.526 1252.5,186.127 1247.41,190.962C1221.42,215.652 1193.09,249.134 1183.4,273.396C1168.82,309.891 1174.24,382.928 1166.08,384.139C1157.92,385.35 1122.73,327.667 1094.39,317.266C1066.06,306.864 652.553,415.42 652.553,565.041C652.553,628.605 733.946,647.177 803.658,683.471C857.177,711.335 900.725,757.312 933.683,778.431C960.298,795.484 960.827,808.439 958.641,814.828Z" style="fill:rgb(247,249,252);"/>
            <path d="M491.416,653.708C511.531,697.366 551.615,728.585 551.615,728.585C551.615,728.585 428.33,755.115 293.973,689.696C291.252,688.354 289.778,685.345 290.387,682.372C290.997,679.4 293.535,677.213 296.564,677.05C338.375,674.65 425.393,668.246 491.416,653.708Z" style="fill:url(#_Linear2);"/>
            <path d="M739.861,653.708C739.861,653.708 760.117,639.315 771.404,581.382C771.836,579.196 770.917,576.965 769.07,575.718C767.224,574.471 764.81,574.453 762.945,575.67C743.072,588.553 700.211,614.353 674.956,614.728C685.645,677.229 739.861,653.708 739.861,653.708Z" style="fill:url(#_Linear3);"/>
            <path d="M753.234,428.651C753.234,428.651 795.168,435.835 829,430.087C831.95,429.537 834.211,427.153 834.605,424.178C834.999,421.203 833.435,418.313 830.73,417.014C821.108,412.447 811.379,406.049 811.194,398.663C811.194,398.663 799.457,399.518 753.234,428.651Z" style="fill:url(#_Linear4);"/>
            <path d="M665.399,603.991C691.054,638.571 750.723,655.912 803.658,683.471C852.09,708.686 892.356,748.735 923.998,771.771C934.122,779.25 910.697,799.265 884.923,783.759C859.521,768.477 803.695,761.164 753.234,761.51C685.418,761.974 562.197,708.634 520.077,651.019C477.958,593.403 471.298,554.388 491.046,507.409C591.682,334.734 1032.57,286.775 1094.39,269.039C1125.74,260.046 1158.18,217.635 1190.51,195.169C1219.76,174.842 1247.2,163.085 1267.73,163.085C1166.79,206.859 1138.72,303.502 1100.29,303.502C995.177,303.502 645.182,405.455 645.182,523.8C645.182,579.055 665.399,603.991 665.399,603.991Z" style="fill:rgb(193,202,227);"/>
            <path d="M958.641,814.828C949.863,840.482 470.63,846.61 470.63,581.292C470.63,347.716 1024.53,289.082 1094.39,269.039C1125.74,260.046 1158.18,217.635 1190.51,195.169C1234.56,164.559 1274.51,153.385 1292.92,172.523C1295.29,174.984 1284.96,181.642 1274.44,180.46C1266.14,179.526 1252.5,186.127 1247.41,190.962C1221.42,215.652 1193.09,249.134 1183.4,273.396C1168.82,309.891 1174.24,382.928 1166.08,384.139C1157.92,385.35 1122.73,327.667 1094.39,317.266C1066.06,306.864 652.553,415.42 652.553,565.041C652.553,628.605 733.946,647.177 803.658,683.471C857.177,711.335 900.725,757.312 933.683,778.431C960.298,795.484 960.827,808.439 958.641,814.828Z" style="fill:url(#_Linear5);"/>
            <g transform="matrix(1,0,0,1,-14.5076,-1.09984)">
                <path d="M901.221,806.92C901.055,806.112 901.576,805.322 902.383,805.156C903.191,804.989 903.982,805.51 904.148,806.318C904.148,806.318 904.663,807.935 904.23,810.168C904.021,811.244 903.559,812.463 902.668,813.635C902.247,814.188 901.717,814.723 901.068,815.208C899.949,816.045 898.517,816.781 896.652,817.316C895.886,817.621 895.017,817.246 894.712,816.48C894.407,815.714 894.782,814.844 895.548,814.539C896.264,814.159 896.849,813.73 897.395,813.329C898.342,812.634 898.976,811.881 899.505,811.191C900.058,810.471 900.478,809.816 900.713,809.182C901.189,807.898 901.221,806.92 901.221,806.92Z" style="fill:rgb(124,138,177);"/>
            </g>
            <g transform="matrix(0.984408,0.175902,-0.175902,0.984408,170.79,-117.835)">
                <ellipse cx="792.418" cy="785.256" rx="18.776" ry="17.263" style="fill:white;stroke:rgb(193,202,227);stroke-width:2px;"/>
            </g>
            <g transform="matrix(0.790394,0.141234,-0.14948,0.836543,305.366,28.2562)">
                <ellipse cx="792.418" cy="785.256" rx="18.776" ry="17.263" style="fill:rgb(94,94,94);"/>
            </g>
            <g transform="matrix(0.984408,0.175902,-0.286937,1.6058,264.153,-542.003)">
                <path d="M777.124,756.804C775.205,754.677 774.036,751.86 774.036,748.772C774.036,745.684 775.205,742.867 777.124,740.74C779.043,742.867 780.212,745.684 780.212,748.772C780.212,751.86 779.043,754.677 777.124,756.804Z"/>
            </g>
            <g transform="matrix(0.984408,0.175902,-0.175902,0.984408,170.79,-117.835)">
                <ellipse cx="792.418" cy="785.256" rx="18.776" ry="17.263" style="fill:none;stroke:rgb(193,202,227);stroke-width:2px;"/>
            </g>
            <path d="M895.453,308.361C895.453,308.361 911.249,269.79 956.78,248.465C958.241,247.789 959.961,248.025 961.185,249.069C962.409,250.114 962.913,251.775 962.476,253.323C961.016,259.572 959.848,269.018 961.412,280.487C961.764,283.072 973.583,280.728 974.252,283.391C974.88,285.892 968.214,292.133 961.412,294.615" style="fill:url(#_Linear6);"/>
            <path d="M551.615,523.8C551.615,523.8 509.478,427.933 609.219,313.591C610.375,312.265 612.27,311.866 613.863,312.612C615.456,313.359 616.361,315.07 616.083,316.807C613.49,333.77 609.802,364.226 611.495,391.919C611.831,397.415 623.401,397.217 631.552,396.389C633.301,396.207 635.016,396.961 636.065,398.372C637.114,399.784 637.341,401.644 636.662,403.266C633.655,410.289 627.968,420.335 618.349,426.497C564.389,461.061 551.615,523.8 551.615,523.8Z" style="fill:url(#_Linear7);"/>
            <path d="M556.079,720.947C556.079,720.947 556.601,721.616 557.113,722.858C557.361,723.461 557.585,724.162 557.732,724.993C557.831,725.554 557.871,726.154 557.853,726.794C557.842,727.185 557.803,727.589 557.718,727.998C557.639,728.383 557.521,728.771 557.367,729.158C557.153,729.698 556.887,730.232 556.544,730.765C556.234,731.249 555.891,731.716 555.468,732.179C554.91,732.79 554.284,733.344 553.524,733.906C554.066,733.042 554.432,732.226 554.763,731.411C555.125,730.519 555.348,729.685 555.518,728.87C555.572,728.611 555.615,728.359 555.664,728.111C555.714,727.854 555.759,727.603 555.809,727.357C555.916,726.824 556.012,726.32 556.078,725.834C556.173,725.14 556.246,724.516 556.266,723.933C556.329,722.124 556.079,720.947 556.079,720.947Z" style="fill:rgb(214,218,231);"/>
            <g transform="matrix(1,0,0,1,6.58531,4.48889)">
                <path d="M557.218,719.534C557.218,719.534 557.526,720.364 557.77,721.808C557.885,722.486 557.981,723.263 558.003,724.161C558.017,724.76 557.988,725.392 557.911,726.059C557.863,726.469 557.795,726.889 557.689,727.311C557.588,727.714 557.454,728.118 557.294,728.522C557.064,729.102 556.791,729.672 556.465,730.244C556.155,730.788 555.819,731.312 555.422,731.834C554.864,732.566 554.247,733.237 553.524,733.906C553.965,733.054 554.285,732.228 554.579,731.381C554.78,730.801 554.936,730.241 555.094,729.677C555.324,728.855 555.468,728.057 555.643,727.288C555.768,726.742 555.906,726.218 556.034,725.713C556.253,724.84 556.459,724.045 556.617,723.308C557.104,721.042 557.218,719.534 557.218,719.534Z" style="fill:rgb(214,218,231);"/>
            </g>
            <g transform="matrix(1,0,0,1,13.1706,8.97777)">
                <path d="M558.298,718.449C558.298,718.449 558.581,719.385 558.766,720.955C558.854,721.7 558.919,722.556 558.899,723.526C558.886,724.182 558.825,724.871 558.712,725.59C558.641,726.036 558.548,726.491 558.416,726.946C558.289,727.384 558.126,727.82 557.937,728.253C557.663,728.88 557.34,729.494 556.961,730.1C556.597,730.682 556.201,731.24 555.74,731.784C555.088,732.553 554.365,733.245 553.524,733.906C554.1,733.041 554.535,732.173 554.929,731.277C555.196,730.667 555.411,730.068 555.621,729.463C555.925,728.589 556.131,727.724 556.359,726.889C556.52,726.299 556.691,725.73 556.848,725.178C557.115,724.236 557.36,723.366 557.552,722.559C558.13,720.126 558.298,718.449 558.298,718.449Z" style="fill:rgb(214,218,231);"/>
            </g>
            <g transform="matrix(1,0,0,1,19.7559,13.4667)">
                <path d="M560.11,718.449C560.11,718.449 560.203,719.433 560.115,721.06C560.074,721.822 560,722.693 559.834,723.672C559.723,724.329 559.568,725.014 559.361,725.727C559.233,726.167 559.085,726.614 558.902,727.059C558.725,727.486 558.516,727.909 558.285,728.329C557.95,728.938 557.573,729.532 557.151,730.121C556.742,730.69 556.31,731.236 555.824,731.769C555.123,732.54 554.369,733.237 553.524,733.906C554.112,733.031 554.584,732.146 555.033,731.231C555.335,730.615 555.594,730.008 555.856,729.396C556.233,728.514 556.53,727.637 556.857,726.797C557.087,726.204 557.331,725.636 557.562,725.087C557.957,724.151 558.331,723.291 558.65,722.497C559.619,720.086 560.11,718.449 560.11,718.449Z" style="fill:rgb(214,218,231);"/>
            </g>
            <g transform="matrix(1,0,0,1,26.3412,16.2486)">
                <path d="M561.577,718.165C561.577,718.165 561.533,718.971 561.308,720.326C561.162,721.211 560.958,722.294 560.616,723.529C560.431,724.195 560.203,724.888 559.927,725.606C559.756,726.049 559.567,726.499 559.344,726.945C559.13,727.374 558.886,727.797 558.622,728.217C558.238,728.83 557.817,729.426 557.359,730.017C556.911,730.595 556.444,731.149 555.934,731.69C555.18,732.49 554.386,733.214 553.524,733.906C554.205,732.91 554.768,731.882 555.318,730.819C555.758,729.97 556.151,729.128 556.535,728.283C556.73,727.852 556.915,727.427 557.109,727.009C557.308,726.58 557.503,726.158 557.707,725.75C558.02,725.126 558.339,724.534 558.635,723.962C558.852,723.544 559.066,723.151 559.271,722.768C559.84,721.705 560.317,720.792 560.688,720.037C561.266,718.862 561.577,718.165 561.577,718.165Z" style="fill:rgb(214,218,231);"/>
            </g>
        </g>
        <g transform="matrix(1,0,0,1,-66.8478,0)">
            <path d="M791.2,929.82C792.765,929.192 794.842,929.134 797.424,929.653C800.635,930.298 804.732,931.83 809.685,933.966C824.441,940.331 847.031,952.124 876.819,960.952C894.116,966.078 913.848,970.203 935.89,971.67C971.839,974.067 1013.05,970.447 1050.26,964.14C1086.5,957.997 1118.93,949.308 1138.99,941.125C1148.65,937.188 1155.38,933.455 1158.09,930.13C1158.24,929.947 1158.42,929.796 1158.63,929.689L1232.77,891.75C1233.31,891.473 1233.96,891.498 1234.48,891.816C1235,892.133 1235.31,892.698 1235.31,893.307L1235.33,930.146L1265.12,945.981L1330.09,929.453C1330.75,929.285 1331.45,929.505 1331.9,930.02C1332.35,930.536 1332.47,931.26 1332.21,931.892C1332.21,931.892 1309.42,987.577 1309.42,987.58C1302.71,1043.59 1329.27,1097.75 1367.2,1145.55C1423.7,1216.76 1505.53,1273.85 1541.8,1301.84C1551.25,1309.13 1557.65,1314.53 1559.9,1317.72C1561.18,1319.53 1561.3,1321.02 1560.92,1321.99C1558.04,1329.28 1550.91,1334.62 1540.05,1338.07C1518.7,1344.86 1482.53,1344.54 1437.9,1339.83C1353.39,1330.92 1238.35,1306.44 1136.78,1286.27C1051.63,1269.36 975.975,1255.45 935.829,1256.39C915.34,1256.88 895.366,1273.28 876.903,1291.39C856.946,1310.97 838.763,1332.6 823.868,1339.81C817.714,1342.78 812.056,1343.38 806.994,1340.87C804.324,1339.54 802.646,1336.79 801.974,1332.88C801.134,1327.98 801.843,1321.12 803.504,1313.45C808.372,1290.96 821.286,1261.24 824.07,1254.97C824.07,1254.97 762.34,1199.61 762.34,1199.61C755.998,1200.1 710.585,1203.53 684.219,1202.93C675.451,1202.73 668.723,1202.02 666.001,1200.72C664.392,1199.95 663.776,1198.85 663.777,1197.82C663.777,1196.96 664.197,1196.03 665.281,1195.2C666.445,1194.32 668.651,1193.42 671.686,1192.54C685.523,1188.55 717.917,1184.11 739.988,1173.28C751.314,1167.72 759.939,1160.54 761.337,1150.6C765.927,1117.97 763.548,1025.15 772.817,970.957C774.995,958.218 777.827,947.589 781.511,940.307C784.241,934.912 787.488,931.309 791.2,929.82ZM667.561,1197.72C667.614,1197.75 667.667,1197.77 667.719,1197.79C668.479,1198.1 669.521,1198.35 670.8,1198.57C675.856,1199.43 684.311,1199.68 694.09,1199.59C722.8,1199.33 762.806,1196.09 762.806,1196.09C763.28,1196.06 763.748,1196.21 764.102,1196.53L827.409,1253.19C827.987,1253.71 828.162,1254.54 827.841,1255.25C827.841,1255.25 812.423,1289.24 807.042,1314.21C805.505,1321.35 804.771,1327.71 805.556,1332.26C805.996,1334.81 806.869,1336.74 808.613,1337.61C812.567,1339.57 816.956,1338.98 821.733,1336.78C827.269,1334.22 833.259,1329.52 839.655,1323.64C858.746,1306.09 881.241,1278.19 905.131,1263.2C915.133,1256.92 925.39,1252.88 935.739,1252.63C976.048,1251.65 1052.04,1265.5 1137.53,1282.43C1239,1302.53 1353.91,1326.95 1438.32,1335.86C1474.65,1339.69 1505.3,1340.66 1526.73,1337.11C1535.38,1335.67 1542.5,1333.51 1547.83,1330.47C1552.31,1327.91 1555.49,1324.73 1557.12,1320.8C1557.05,1320.65 1556.91,1320.37 1556.76,1320.14C1556.38,1319.59 1555.85,1318.95 1555.16,1318.23C1552.2,1315.11 1546.74,1310.65 1539.38,1304.97C1502.97,1276.86 1420.89,1219.46 1364.2,1147.92C1325.61,1099.21 1298.83,1043.94 1305.81,986.89C1305.83,986.727 1305.87,986.568 1305.93,986.416C1305.93,986.416 1327.5,933.842 1327.5,933.842L1265.33,949.6C1264.9,949.709 1264.44,949.654 1264.05,949.447L1232.73,932.764C1232.16,932.458 1231.8,931.859 1231.8,931.207C1231.8,931.207 1231.81,896.163 1231.81,896.163C1231.81,896.163 1160.49,932.569 1160.49,932.567C1157.88,935.564 1152.39,938.967 1144.56,942.439C1128.76,949.447 1103.24,957.007 1073.52,963.132C1030.8,971.937 979.369,977.786 935.678,974.827C913.384,973.315 893.429,969.121 875.939,963.914C846.012,955.004 823.321,943.127 808.497,936.716C803.784,934.678 799.892,933.198 796.835,932.582C794.96,932.205 793.45,932.137 792.314,932.593C787.89,934.373 784.484,939.814 781.622,947.709C777.537,958.978 774.786,975.176 772.848,993.681C767.139,1048.18 768.529,1122.56 764.553,1151.05C763.032,1161.96 753.861,1170.12 741.438,1176.23C719.2,1187.17 686.564,1191.73 672.619,1195.77C670.514,1196.38 668.865,1196.96 667.798,1197.57C667.721,1197.62 667.639,1197.67 667.561,1197.72Z" style="fill:rgb(124,138,177);"/>
        </g>
        <g transform="matrix(1,0,0,1,-66.8478,0)">
            <path d="M1234.36,974.511C1233.66,974.952 1232.74,974.745 1232.3,974.048C1231.86,973.351 1232.07,972.427 1232.76,971.986C1232.76,971.986 1304.17,926.575 1350.05,864.75C1371.97,835.213 1388.1,801.933 1387.53,768.031C1387.24,750.466 1378.77,733.422 1365.05,717.158C1348.67,697.752 1324.83,679.504 1298.07,662.945C1213.42,610.548 1099.69,575.203 1099.69,575.203C1098.9,574.96 1098.46,574.123 1098.7,573.335C1098.95,572.547 1099.78,572.104 1100.57,572.347C1100.57,572.347 1214.94,607.309 1300.09,659.676C1327.28,676.396 1351.48,694.904 1368.1,714.581C1382.49,731.617 1391.19,749.564 1391.47,767.969C1391.97,802.678 1375.53,836.776 1352.99,866.936C1306.54,929.076 1234.36,974.511 1234.36,974.511Z" style="fill:rgb(124,138,177);"/>
        </g>
    </g>
    <defs>
        <linearGradient id="_Linear1" x1="0" y1="0" x2="1" y2="0" gradientUnits="userSpaceOnUse" gradientTransform="matrix(53.4277,-28.6315,-28.6315,-53.4277,960.326,312.34)"><stop offset="0" style="stop-color:rgb(231,237,246);stop-opacity:1"/><stop offset="1" style="stop-color:rgb(166,174,198);stop-opacity:1"/></linearGradient>
        <linearGradient id="_Linear2" x1="0" y1="0" x2="1" y2="0" gradientUnits="userSpaceOnUse" gradientTransform="matrix(9.5283,71.9686,-20.6467,2.73353,369.194,632.141)"><stop offset="0" style="stop-color:white;stop-opacity:1"/><stop offset="1" style="stop-color:rgb(202,210,231);stop-opacity:1"/></linearGradient>
        <linearGradient id="_Linear3" x1="0" y1="0" x2="1" y2="0" gradientUnits="userSpaceOnUse" gradientTransform="matrix(19.0496,48.2184,-48.2184,19.0496,704.183,585.348)"><stop offset="0" style="stop-color:rgb(247,249,252);stop-opacity:1"/><stop offset="1" style="stop-color:rgb(202,210,231);stop-opacity:1"/></linearGradient>
        <linearGradient id="_Linear4" x1="0" y1="0" x2="1" y2="0" gradientUnits="userSpaceOnUse" gradientTransform="matrix(66.0795,105.135,-105.135,66.0795,786.444,389.643)"><stop offset="0" style="stop-color:rgb(247,249,252);stop-opacity:1"/><stop offset="1" style="stop-color:rgb(180,191,221);stop-opacity:1"/></linearGradient>
        <linearGradient id="_Linear5" x1="0" y1="0" x2="1" y2="0" gradientUnits="userSpaceOnUse" gradientTransform="matrix(-250.766,830.134,-830.134,-250.766,1004,-194.068)"><stop offset="0" style="stop-color:rgb(178,187,211);stop-opacity:1"/><stop offset="1" style="stop-color:rgb(247,249,252);stop-opacity:0"/></linearGradient>
        <linearGradient id="_Linear6" x1="0" y1="0" x2="1" y2="0" gradientUnits="userSpaceOnUse" gradientTransform="matrix(42.5885,-32.802,32.802,42.5885,961.412,294.615)"><stop offset="0" style="stop-color:rgb(180,191,221);stop-opacity:1"/><stop offset="1" style="stop-color:black;stop-opacity:1"/></linearGradient>
        <linearGradient id="_Linear7" x1="0" y1="0" x2="1" y2="0" gradientUnits="userSpaceOnUse" gradientTransform="matrix(94.2425,-110.545,251.886,214.738,542.806,467.663)"><stop offset="0" style="stop-color:rgb(180,191,221);stop-opacity:1"/><stop offset="0.58" style="stop-color:rgb(167,176,201);stop-opacity:1"/><stop offset="0.8" style="stop-color:rgb(139,144,156);stop-opacity:1"/><stop offset="1" style="stop-color:rgb(112,112,112);stop-opacity:1"/></linearGradient>
    </defs>
</svg>
