<?xml version="1.0" encoding="UTF-8" standalone="no"?>
<!DOCTYPE svg PUBLIC "-//W3C//DTD SVG 1.1//EN" "http://www.w3.org/Graphics/SVG/1.1/DTD/svg11.dtd">
<svg width="100%" height="100%" viewBox="0 0 954 391" version="1.1" xmlns="http://www.w3.org/2000/svg" xmlns:xlink="http://www.w3.org/1999/xlink" xml:space="preserve" xmlns:serif="http://www.serif.com/" style="fill-rule:evenodd;clip-rule:evenodd;stroke-linejoin:round;stroke-miterlimit:2;">
    <g transform="matrix(1,0,0,1,-528.286,-559.095)">
        <g>
            <path d="M893.686,577.984C890.183,578.811 870.077,574.061 870.361,571.316C870.644,568.571 915.013,565.617 927.516,564.845C948.534,563.547 971.807,563.603 997.152,564.545C997.96,564.55 998.611,565.21 998.606,566.018C998.6,566.825 997.94,567.477 997.133,567.471C988.413,567.681 979.947,567.98 971.742,568.387C971.434,568.646 971.326,569.073 971.473,569.447C971.621,569.822 971.99,570.06 972.392,570.04C990.705,568.949 1011.4,567.621 1023.77,565.934C1024.57,565.806 1025.32,566.349 1025.44,567.146C1025.57,567.944 1025.03,568.695 1024.23,568.823C999.256,573.445 978.271,575.891 954.778,578.476C936.004,580.541 912.317,578.837 893.686,577.984Z" style="fill:url(#_Linear1);"/>
            <path d="M1020.88,596.581C1011.25,601.076 962.968,585.078 962.76,583.618C962.45,581.432 963.972,579.406 966.158,579.095C983.094,577.195 999.293,576.212 1014.7,576.291C1031.88,576.379 1048.02,577.761 1063.04,580.634C1063.68,580.736 1064.12,581.337 1064.01,581.975C1063.91,582.613 1063.31,583.048 1062.67,582.945C1047.71,580.985 1031.74,580.554 1014.83,581.46C1008.16,581.817 1001.36,582.384 994.426,583.15C994.108,583.189 993.878,583.471 993.902,583.79C993.927,584.109 994.198,584.352 994.518,584.342C1004.84,584.012 1014.9,583.82 1023.07,583.844C1036.53,583.884 1051.42,586.691 1065.52,589.31C1066.48,589.445 1067.15,590.334 1067.01,591.293C1066.88,592.253 1065.99,592.922 1065.03,592.787C1051.09,591.448 1034.76,590.101 1020.88,596.581Z" style="fill:url(#_Linear2);"/>
            <path d="M1139.16,661.045C1137.57,660.584 1042.11,605.279 1045.29,604.366C1045.29,604.366 1060.03,600.968 1081.27,601.5C1091.76,601.763 1103.79,602.925 1116.43,605.974C1117.38,606.143 1118.02,607.056 1117.85,608.01C1117.68,608.964 1116.77,609.601 1115.81,609.431C1103.32,607.988 1091.64,608.273 1081.55,609.251C1080.78,609.326 1080.02,609.404 1079.27,609.487C1078.59,609.562 1078.08,610.146 1078.09,610.833C1078.1,611.52 1078.64,612.083 1079.33,612.131C1086.97,612.684 1094.67,613.46 1102.41,614.392C1121.71,616.717 1141.21,619.98 1160.68,623.039C1161.32,623.121 1161.78,623.708 1161.69,624.349C1161.61,624.989 1161.03,625.443 1160.39,625.361C1140.83,623.436 1121.23,621.309 1101.89,620.105C1099.14,619.934 1096.41,619.783 1093.68,619.654C1093.4,619.639 1093.16,619.843 1093.12,620.122C1093.09,620.401 1093.27,620.659 1093.55,620.714C1103.17,622.499 1114.14,623.807 1123.02,625.316C1136.04,627.528 1148.89,630.786 1161.6,635.138C1162.22,635.325 1162.57,635.979 1162.38,636.597C1162.2,637.216 1161.54,637.566 1160.93,637.378C1148.13,633.999 1135.28,631.697 1122.34,630.442C1117.5,629.972 1112.65,629.654 1107.8,629.485C1107.44,629.472 1107.12,629.719 1107.05,630.069C1106.98,630.42 1107.16,630.774 1107.5,630.907C1117.91,634.99 1130.13,638.299 1142.68,640.207C1158.47,642.61 1174.53,644.078 1189.49,644.89C1190.3,644.904 1190.94,645.57 1190.93,646.378C1190.91,647.185 1190.25,647.83 1189.44,647.816C1174.91,648.114 1151.49,646.734 1138.25,645.988C1137.69,645.963 1137.2,646.349 1137.1,646.895C1136.99,647.44 1137.3,647.98 1137.83,648.163C1144.2,650.366 1150.67,652.438 1157.22,654.394C1170.17,658.262 1183.42,661.674 1196.91,664.746C1197.38,664.842 1197.69,665.305 1197.6,665.78C1197.5,666.255 1197.04,666.563 1196.56,666.468C1182.87,664.084 1169.4,661.347 1156.2,658.137C1155.8,658.037 1155.39,657.937 1154.98,657.837C1154.83,657.798 1154.68,657.882 1154.63,658.028C1154.59,658.174 1154.66,658.33 1154.81,658.381C1168.02,663.122 1200.49,674.779 1200.49,674.779C1200.95,674.914 1201.22,675.401 1201.09,675.866C1200.95,676.332 1200.47,676.6 1200,676.465L1139.16,661.045Z" style="fill:url(#_Linear3);"/>
            <path d="M1180.84,690.479C1179.24,690.065 1178.27,688.428 1178.68,686.825C1179.1,685.221 1180.73,684.255 1182.34,684.669L1235.49,700.567C1235.95,700.688 1236.24,701.167 1236.12,701.636C1236,702.105 1235.52,702.388 1235.05,702.267L1180.84,690.479Z" style="fill:url(#_Linear4);"/>
        </g>
        <path d="M930.888,870.8C931.159,870.746 931.436,870.724 931.713,870.734C940.297,871.071 1078.73,876.496 1078.73,876.496C1079.26,879.894 1055.63,882.028 1056.39,883.834C1057.47,886.394 1083.52,887.033 1083.12,889.593C1082.87,891.219 1056.76,888.839 1056.39,891.429C1056.09,893.571 1080.44,896.308 1079.32,897.653C1079.32,897.653 931.064,886.206 887.401,882.835C886.575,882.772 885.923,882.108 885.873,881.281C885.823,880.455 886.39,879.718 887.203,879.555C902.42,876.505 927.402,871.499 930.888,870.8Z" style="fill:url(#_Linear5);"/>
        <path d="M1124.41,852.906C1124.41,852.906 1191.99,848.326 1211.18,840.051C1229.43,832.182 1246.29,831.199 1253.57,831.237C1256.24,831.251 1269.16,827.726 1268.38,825.423C1267.87,823.911 1254.16,824.643 1252.68,822.932C1252.01,822.151 1263.88,818.94 1263.06,818.167C1261.52,816.709 1236.31,822.863 1234.44,821.592C1231.16,819.373 1256,810.122 1252.68,809.344C1240.61,806.517 1210.03,817.372 1210.03,817.372L1124.41,852.906Z" style="fill:url(#_Linear6);"/>
        <path d="M1332.27,728.401C1353.25,732.909 1407.26,730.624 1438.67,749.496C1438.89,749.637 1438.99,749.913 1438.91,750.165C1438.83,750.417 1438.58,750.58 1438.32,750.559C1426.23,749.448 1414.35,744.209 1402.2,743.127C1401.91,743.111 1401.65,743.314 1401.6,743.601C1401.55,743.888 1401.72,744.167 1402,744.25C1433.46,753.645 1469.66,763.687 1480.53,776.291C1480.78,776.622 1480.83,777.058 1480.67,777.439C1480.52,777.82 1480.17,778.091 1479.76,778.153C1457.23,781.595 1439.88,777.507 1412.9,769.519C1412.71,769.462 1412.51,769.56 1412.44,769.742C1412.37,769.925 1412.46,770.13 1412.63,770.212C1421.66,774.339 1440.8,783.095 1448.03,786.399C1448.37,786.553 1448.56,786.916 1448.49,787.281C1448.42,787.647 1448.12,787.92 1447.75,787.946C1435.45,788.689 1423.28,786.84 1411.15,783.853C1410.61,783.715 1410.04,783.976 1409.78,784.48C1409.52,784.984 1409.65,785.597 1410.09,785.958C1422.18,794.512 1442.64,798.405 1459.91,806.326C1460.38,806.55 1460.67,807.041 1460.63,807.561C1460.59,808.082 1460.23,808.523 1459.73,808.669C1444.48,812.657 1422.94,811.777 1405.57,814.19C1405.21,814.251 1404.96,814.567 1404.98,814.926C1405,815.285 1405.28,815.573 1405.64,815.596C1419.65,816.446 1433.79,816.301 1448.03,815.372C1448.19,815.36 1448.34,815.474 1448.37,815.636C1448.4,815.798 1448.3,815.957 1448.14,816.005C1409.08,827.413 1354.35,823.529 1291.72,816.567L1332.27,728.401Z" style="fill:url(#_Linear7);"/>
        <path d="M552.992,753.87C555.017,751.996 558.183,752.118 560.058,754.144C561.932,756.169 561.81,759.335 559.784,761.209C551.698,767.808 546.004,775.065 542.796,783.206C539.383,791.864 538.624,801.307 540.468,811.627C540.632,812.297 540.22,812.973 539.551,813.137C538.881,813.3 538.205,812.889 538.041,812.219C534.662,801.349 534.342,791.069 536.85,781.281C539.337,771.579 544.747,762.514 552.992,753.87Z" style="fill:url(#_Linear8);"/>
        <path d="M560.621,851.628C560.714,854.386 558.55,856.701 555.792,856.794C553.034,856.887 550.719,854.723 550.627,851.965C550.963,835.858 552.923,822.017 556.53,810.204C559.535,800.36 563.588,791.984 568.742,784.963C569.119,784.386 569.894,784.223 570.471,784.6C571.048,784.977 571.211,785.752 570.834,786.329C566.676,793.52 563.695,801.878 561.869,811.52C559.681,823.067 559.271,836.361 560.621,851.628Z" style="fill:url(#_Linear9);"/>
        <path d="M601.482,864.105C601.865,865.716 600.868,867.334 599.257,867.717C597.646,868.1 596.027,867.104 595.644,865.493C594.745,860.248 594.915,855.28 595.854,850.476C597.254,843.32 600.206,836.637 603.187,830.167C603.336,829.781 603.77,829.588 604.156,829.737C604.542,829.886 604.734,830.32 604.585,830.706C602.526,837.259 600.482,844.004 600.019,851.018C599.736,855.301 600.116,859.643 601.482,864.105Z" style="fill:url(#_Linear10);"/>
        <path d="M599.466,789.825C600.627,788.645 602.528,788.63 603.708,789.791C604.888,790.952 604.904,792.853 603.742,794.033C603.742,794.033 599.716,797.331 597.418,802.895C596.118,806.041 595.304,809.804 595.996,814.096C596.099,814.496 595.858,814.905 595.457,815.009C595.057,815.112 594.648,814.871 594.544,814.47C592.89,809.869 593.05,805.537 593.835,801.79C595.333,794.633 599.466,789.825 599.466,789.825Z" style="fill:url(#_Linear11);"/>
        <path d="M654.449,866.357C654.946,867.936 654.067,869.622 652.488,870.119C650.909,870.616 649.223,869.737 648.726,868.158C648.726,868.158 647.151,861.924 647.932,852.01C648.284,847.536 649.082,842.336 650.754,836.595C650.84,836.19 651.239,835.932 651.643,836.019C652.048,836.105 652.306,836.503 652.22,836.908C651.429,842.628 651.39,847.708 651.681,852.031C652.286,860.985 654.449,866.357 654.449,866.357Z" style="fill:url(#_Linear12);"/>
        <path d="M546.512,763.091C539.52,747.619 572.654,618.782 648.807,585.636C688.836,568.213 735.228,557.782 787.273,560.276C834.241,562.527 886.472,576.961 931.134,576.974C1034.54,577.004 1174.16,670.743 1207.23,703.812C1222.67,719.252 1327.23,722.051 1340.3,731.455C1353.54,740.986 1369.18,749.608 1368.71,760.914C1368.24,772.22 1315.04,817.223 1296.85,816.938C1278.66,816.654 1256.25,804.151 1240.32,804.881C1224.39,805.61 1150.66,856.432 1068.7,864.395C986.744,872.359 927.217,864.748 887.139,888.117C847.061,911.486 785.882,952.768 706.623,948.984C627.363,945.2 567.46,892.461 556.676,879.374C545.891,866.286 549.469,844.893 551.721,843.112C559.553,836.919 593.013,858.553 614.943,861.691C644.31,865.893 699.731,861.216 724.251,871.868C701.893,856.915 553.504,778.563 546.512,763.091Z" style="fill:url(#_Linear13);"/>
        <path d="M858.039,814.316C856.463,814.405 854.924,813.819 853.806,812.704C852.689,811.589 852.099,810.051 852.185,808.475C854.065,781.303 865.277,671.219 925.926,609.378C927.083,608.241 928.867,608.041 930.247,608.894C931.626,609.746 932.246,611.431 931.746,612.974C919.826,649.616 887.548,753.837 888.323,807.091C888.469,810.128 886.139,812.715 883.103,812.887C876.412,813.275 865.067,813.918 858.039,814.316Z" style="fill:url(#_Linear14);"/>
        <g>
            <clipPath id="_clip15">
                <path d="M546.512,763.091C539.52,747.619 572.654,618.782 648.807,585.636C688.836,568.213 735.228,557.782 787.273,560.276C834.241,562.527 886.472,576.961 931.134,576.974C1034.54,577.004 1174.16,670.743 1207.23,703.812C1222.67,719.252 1327.23,722.051 1340.3,731.455C1353.54,740.986 1369.18,749.608 1368.71,760.914C1368.24,772.22 1315.04,817.223 1296.85,816.938C1278.66,816.654 1256.25,804.151 1240.32,804.881C1224.39,805.61 1150.66,856.432 1068.7,864.395C986.744,872.359 927.217,864.748 887.139,888.117C847.061,911.486 785.882,952.768 706.623,948.984C627.363,945.2 567.46,892.461 556.676,879.374C545.891,866.286 549.469,844.893 551.721,843.112C559.553,836.919 593.013,858.553 614.943,861.691C644.31,865.893 699.731,861.216 724.251,871.868C701.893,856.915 553.504,778.563 546.512,763.091Z"/>
            </clipPath>
            <g clip-path="url(#_clip15)">
                <path d="M778.84,792.834L562.09,691.004C560.591,690.3 559.946,688.512 560.65,687.014C561.354,685.515 563.142,684.87 564.641,685.574L773.946,783.906C763.43,764.826 751.091,743.084 737.892,720.503L578.656,653.36C577.131,652.717 576.414,650.956 577.058,649.43C577.701,647.905 579.462,647.188 580.987,647.832L732.817,711.851C724.981,698.542 716.894,685.026 708.747,671.667L596.647,626.022C595.113,625.397 594.375,623.645 595,622.112C595.624,620.578 597.376,619.84 598.91,620.465L703.462,663.036C683.846,631.14 664.125,600.603 646.97,576.482L671.418,559.095C722.587,631.042 796.247,759.187 823.661,813.456C829.635,825.28 833.502,833.927 834.846,838.179C835.791,841.165 836.008,843.439 836.008,844.846C836.008,850.123 832.418,859.473 824.586,869.641C811.95,886.047 788.546,908.111 772.894,919.237L755.513,894.785C769.229,885.035 789.746,865.711 800.819,851.334C802.438,849.232 804.13,846.519 805.181,844.762C803.575,841.079 800.344,833.83 796.884,826.982C792.149,817.608 786.012,805.995 778.84,792.834Z" style="fill:rgb(251,228,174);fill-opacity:0.5;"/>
                <path d="M534.767,853.55L546.452,832.586C596.758,860.625 626.821,862.23 656.823,861.112C689.74,859.886 724.855,855.038 779.671,874.304C772.474,881.373 764.492,888.22 755.513,894.785C704.738,876.94 688.207,883.959 657.716,885.096C624.31,886.34 590.782,884.77 534.767,853.55Z" style="fill:url(#_Linear16);"/>
                <path d="M528.286,751.43L547.907,728.736C616.571,788.1 702.096,825.056 779.671,874.304C772.332,881.652 764.325,888.513 755.513,894.785C676.697,844.749 598.049,811.744 528.286,751.43Z" style="fill:url(#_Linear17);"/>
            </g>
        </g>
        <g transform="matrix(0.609617,0,0,0.609617,245.291,265.273)">
            <circle cx="628.335" cy="679.52" r="16.88" style="fill:rgb(235,235,235);"/>
            <path d="M628.335,631.473C654.853,631.473 676.382,653.002 676.382,679.52C676.382,706.038 654.853,727.567 628.335,727.567C601.818,727.567 580.288,706.038 580.288,679.52C580.288,653.002 601.818,631.473 628.335,631.473ZM628.335,662.64C619.019,662.64 611.456,670.204 611.456,679.52C611.456,688.836 619.019,696.4 628.335,696.4C637.652,696.4 645.215,688.836 645.215,679.52C645.215,670.204 637.652,662.64 628.335,662.64Z" style="fill:url(#_Radial18);"/>
        </g>
    </g>
    <defs>
        <linearGradient id="_Linear1" x1="0" y1="0" x2="1" y2="0" gradientUnits="userSpaceOnUse" gradientTransform="matrix(1.86961,-22.1204,22.1204,1.86961,918.627,579.15)"><stop offset="0" style="stop-color:white;stop-opacity:1"/><stop offset="0.5" style="stop-color:white;stop-opacity:0.5"/><stop offset="0.75" style="stop-color:white;stop-opacity:0.62"/><stop offset="1" style="stop-color:white;stop-opacity:1"/></linearGradient>
        <linearGradient id="_Linear2" x1="0" y1="0" x2="1" y2="0" gradientUnits="userSpaceOnUse" gradientTransform="matrix(21.5569,-33.3854,33.3854,21.5569,1010.54,600.711)"><stop offset="0" style="stop-color:white;stop-opacity:1"/><stop offset="0.23" style="stop-color:white;stop-opacity:0.61"/><stop offset="0.5" style="stop-color:white;stop-opacity:0.5"/><stop offset="0.76" style="stop-color:white;stop-opacity:0.62"/><stop offset="1" style="stop-color:white;stop-opacity:1"/></linearGradient>
        <linearGradient id="_Linear3" x1="0" y1="0" x2="1" y2="0" gradientUnits="userSpaceOnUse" gradientTransform="matrix(21.1989,-37.9235,37.9235,21.1989,1100.94,636.882)"><stop offset="0" style="stop-color:white;stop-opacity:1"/><stop offset="0.5" style="stop-color:white;stop-opacity:0.5"/><stop offset="1" style="stop-color:white;stop-opacity:1"/></linearGradient>
        <linearGradient id="_Linear4" x1="0" y1="0" x2="1" y2="0" gradientUnits="userSpaceOnUse" gradientTransform="matrix(12.8715,-14.9389,14.9389,12.8715,1216.95,710.328)"><stop offset="0" style="stop-color:white;stop-opacity:1"/><stop offset="0.25" style="stop-color:white;stop-opacity:0.62"/><stop offset="0.5" style="stop-color:white;stop-opacity:0.5"/><stop offset="0.77" style="stop-color:white;stop-opacity:0.61"/><stop offset="1" style="stop-color:white;stop-opacity:1"/></linearGradient>
        <linearGradient id="_Linear5" x1="0" y1="0" x2="1" y2="0" gradientUnits="userSpaceOnUse" gradientTransform="matrix(176.447,10.5969,-10.5969,176.447,900.228,876.944)"><stop offset="0" style="stop-color:white;stop-opacity:1"/><stop offset="0.25" style="stop-color:white;stop-opacity:0.62"/><stop offset="0.5" style="stop-color:white;stop-opacity:0.5"/><stop offset="0.77" style="stop-color:white;stop-opacity:0.61"/><stop offset="1" style="stop-color:white;stop-opacity:1"/></linearGradient>
        <linearGradient id="_Linear6" x1="0" y1="0" x2="1" y2="0" gradientUnits="userSpaceOnUse" gradientTransform="matrix(118.822,-31.3196,31.3196,118.822,1139.61,851.686)"><stop offset="0" style="stop-color:white;stop-opacity:1"/><stop offset="0.25" style="stop-color:white;stop-opacity:0.62"/><stop offset="0.5" style="stop-color:white;stop-opacity:0.5"/><stop offset="0.77" style="stop-color:white;stop-opacity:0.61"/><stop offset="1" style="stop-color:white;stop-opacity:1"/></linearGradient>
        <linearGradient id="_Linear7" x1="0" y1="0" x2="1" y2="0" gradientUnits="userSpaceOnUse" gradientTransform="matrix(99.6431,9.70657,-9.70657,99.6431,1345.78,768)"><stop offset="0" style="stop-color:white;stop-opacity:1"/><stop offset="0.25" style="stop-color:white;stop-opacity:0.62"/><stop offset="0.5" style="stop-color:white;stop-opacity:0.5"/><stop offset="0.77" style="stop-color:white;stop-opacity:0.61"/><stop offset="1" style="stop-color:white;stop-opacity:1"/></linearGradient>
        <linearGradient id="_Linear8" x1="0" y1="0" x2="1" y2="0" gradientUnits="userSpaceOnUse" gradientTransform="matrix(-10.9318,46.6664,-46.6664,-10.9318,549.956,764.281)"><stop offset="0" style="stop-color:white;stop-opacity:1"/><stop offset="0.25" style="stop-color:white;stop-opacity:0.62"/><stop offset="0.5" style="stop-color:white;stop-opacity:0.5"/><stop offset="0.77" style="stop-color:white;stop-opacity:0.61"/><stop offset="1" style="stop-color:white;stop-opacity:1"/></linearGradient>
        <linearGradient id="_Linear9" x1="0" y1="0" x2="1" y2="0" gradientUnits="userSpaceOnUse" gradientTransform="matrix(-14.282,58.4421,-58.4421,-14.282,569.788,785.646)"><stop offset="0" style="stop-color:white;stop-opacity:1"/><stop offset="0.25" style="stop-color:white;stop-opacity:0.62"/><stop offset="0.5" style="stop-color:white;stop-opacity:0.5"/><stop offset="0.77" style="stop-color:white;stop-opacity:0.61"/><stop offset="1" style="stop-color:white;stop-opacity:1"/></linearGradient>
        <linearGradient id="_Linear10" x1="0" y1="0" x2="1" y2="0" gradientUnits="userSpaceOnUse" gradientTransform="matrix(6.24983,-28.0523,28.0523,6.24983,597.636,858.489)"><stop offset="0" style="stop-color:white;stop-opacity:1"/><stop offset="0.25" style="stop-color:white;stop-opacity:0.62"/><stop offset="0.5" style="stop-color:white;stop-opacity:0.5"/><stop offset="0.77" style="stop-color:white;stop-opacity:0.61"/><stop offset="1" style="stop-color:white;stop-opacity:1"/></linearGradient>
        <linearGradient id="_Linear11" x1="0" y1="0" x2="1" y2="0" gradientUnits="userSpaceOnUse" gradientTransform="matrix(1.80619,-15.6179,15.6179,1.80619,595.27,814.283)"><stop offset="0" style="stop-color:white;stop-opacity:1"/><stop offset="0.25" style="stop-color:white;stop-opacity:0.62"/><stop offset="0.5" style="stop-color:white;stop-opacity:0.5"/><stop offset="0.77" style="stop-color:white;stop-opacity:0.61"/><stop offset="1" style="stop-color:white;stop-opacity:1"/></linearGradient>
        <linearGradient id="_Linear12" x1="0" y1="0" x2="1" y2="0" gradientUnits="userSpaceOnUse" gradientTransform="matrix(0.367154,-28.6722,28.6722,0.367154,651.12,865.424)"><stop offset="0" style="stop-color:white;stop-opacity:1"/><stop offset="0.25" style="stop-color:white;stop-opacity:0.62"/><stop offset="0.5" style="stop-color:white;stop-opacity:0.5"/><stop offset="0.77" style="stop-color:white;stop-opacity:0.61"/><stop offset="1" style="stop-color:white;stop-opacity:1"/></linearGradient>
        <linearGradient id="_Linear13" x1="0" y1="0" x2="1" y2="0" gradientUnits="userSpaceOnUse" gradientTransform="matrix(2.16265e-14,353.188,-353.188,2.16265e-14,848.195,557.6)"><stop offset="0" style="stop-color:rgb(228,211,176);stop-opacity:1"/><stop offset="0.36" style="stop-color:rgb(197,108,72);stop-opacity:1"/><stop offset="1" style="stop-color:rgb(103,58,40);stop-opacity:1"/></linearGradient>
        <linearGradient id="_Linear14" x1="0" y1="0" x2="1" y2="0" gradientUnits="userSpaceOnUse" gradientTransform="matrix(53.6546,-204.201,204.201,53.6546,872.351,813.504)"><stop offset="0" style="stop-color:white;stop-opacity:0.64"/><stop offset="0.25" style="stop-color:white;stop-opacity:0.53"/><stop offset="0.5" style="stop-color:white;stop-opacity:0.5"/><stop offset="0.77" style="stop-color:white;stop-opacity:0.61"/><stop offset="1" style="stop-color:white;stop-opacity:1"/></linearGradient>
        <linearGradient id="_Linear16" x1="0" y1="0" x2="1" y2="0" gradientUnits="userSpaceOnUse" gradientTransform="matrix(237.142,57.1419,-57.1419,237.142,540.609,843.068)"><stop offset="0" style="stop-color:rgb(251,228,174);stop-opacity:1"/><stop offset="1" style="stop-color:rgb(154,85,57);stop-opacity:1"/></linearGradient>
        <linearGradient id="_Linear17" x1="0" y1="0" x2="1" y2="0" gradientUnits="userSpaceOnUse" gradientTransform="matrix(227.031,139.486,-139.486,227.031,546.351,747.042)"><stop offset="0" style="stop-color:rgb(251,228,174);stop-opacity:1"/><stop offset="1" style="stop-color:rgb(154,85,57);stop-opacity:1"/></linearGradient>
        <radialGradient id="_Radial18" cx="0" cy="0" r="1" gradientUnits="userSpaceOnUse" gradientTransform="matrix(49.0401,0,0,49.0401,628.335,679.52)"><stop offset="0" style="stop-color:rgb(6,61,109);stop-opacity:1"/><stop offset="0.58" style="stop-color:rgb(5,56,98);stop-opacity:1"/><stop offset="0.8" style="stop-color:rgb(3,45,76);stop-opacity:1"/><stop offset="1" style="stop-color:rgb(1,34,54);stop-opacity:1"/></radialGradient>
    </defs>
</svg>
