<?xml version="1.0" encoding="UTF-8" standalone="no"?>
<!DOCTYPE svg PUBLIC "-//W3C//DTD SVG 1.1//EN" "http://www.w3.org/Graphics/SVG/1.1/DTD/svg11.dtd">
<svg width="100%" height="100%" viewBox="0 0 524 559" version="1.1" xmlns="http://www.w3.org/2000/svg" xmlns:xlink="http://www.w3.org/1999/xlink" xml:space="preserve" xmlns:serif="http://www.serif.com/" style="fill-rule:evenodd;clip-rule:evenodd;stroke-linecap:round;stroke-linejoin:round;stroke-miterlimit:1.5;">
    <g transform="matrix(1,0,0,1,-867.944,-556.526)">
        <g transform="matrix(0.820781,0.571243,-0.571243,0.820781,687.52,-540.584)">
            <g transform="matrix(0.993546,0,0,1,236.786,-24.7533)">
                <path d="M948.909,716.454C984.511,716.289 1016.11,717.228 1035.76,718.819C1045.52,719.608 1052.37,720.578 1055.38,721.625C1056.41,721.984 1057.07,722.407 1057.41,722.782C1057.77,723.176 1057.9,723.594 1057.9,723.995C1057.9,724.397 1057.77,724.813 1057.41,725.211C1057.08,725.589 1056.41,726.013 1055.38,726.38C1052.38,727.45 1045.53,728.477 1035.78,729.337C1016.13,731.069 984.524,732.205 948.909,732.275C919.262,732.218 892.394,731.427 872.892,730.155C858.589,729.222 848.22,728.021 843.56,726.724C842.161,726.335 841.212,725.899 840.715,725.494C840.127,725.016 839.923,724.481 839.925,723.995C839.927,723.596 840.06,723.18 840.413,722.787C840.75,722.413 841.414,721.991 842.446,721.633C845.456,720.587 852.304,719.614 862.055,718.824C881.706,717.23 913.307,716.291 948.909,716.454ZM843.191,723.987C843.728,724.18 844.413,724.367 845.235,724.554C851.525,725.983 865.344,727.171 883.881,728.011C901.952,728.83 924.486,729.32 948.909,729.279C973.332,729.319 995.866,728.829 1013.94,728.009C1032.47,727.167 1046.29,725.978 1052.58,724.547C1053.39,724.363 1054.07,724.178 1054.6,723.987C1054.07,723.793 1053.4,723.603 1052.59,723.413C1046.31,721.935 1032.49,720.629 1013.95,719.659C995.881,718.713 973.342,718.089 948.909,717.974C924.477,718.087 901.937,718.71 883.865,719.654C865.325,720.623 851.509,721.925 845.227,723.404C844.408,723.596 843.727,723.789 843.191,723.987Z" style="fill:rgb(214,219,253);"/>
            </g>
            <g transform="matrix(1,0,0,1,0,4.24071)">
                <path d="M1177.72,596.621L1174.87,603.314C1174.72,603.662 1174.31,603.823 1173.96,603.674C1173.62,603.525 1173.46,603.122 1173.61,602.774C1173.61,602.774 1177.99,586.582 1179.52,586.582C1181.06,586.582 1185.5,602.774 1185.5,602.774C1185.65,603.122 1185.49,603.525 1185.14,603.674C1184.79,603.823 1184.39,603.662 1184.24,603.314L1181.39,596.631L1180.26,604.248C1180.26,604.626 1179.95,604.934 1179.57,604.935C1179.19,604.936 1178.89,604.63 1178.89,604.251L1177.72,596.621Z" style="fill:rgb(125,178,248);"/>
            </g>
            <g transform="matrix(1,0,0,1,230.793,0)">
                <path d="M939.781,581.064C939.184,577.175 936.196,573.524 936.196,568.724C936.196,558.978 941.834,551.066 948.779,551.066C955.723,551.066 961.361,558.978 961.361,568.724C961.361,573.524 958.373,577.175 957.776,581.064C957.219,584.685 959.275,589.676 957.776,592.054C956.276,594.432 951.778,595.331 948.779,595.331C945.779,595.331 941.281,594.432 939.781,592.054C938.282,589.676 940.338,584.685 939.781,581.064Z" style="fill:url(#_Radial1);"/>
            </g>
            <g>
                <g transform="matrix(1.12695,0,0,1,117.193,0)">
                    <path d="M943.594,554.936C943.897,555.489 943.746,556.215 943.255,556.558C942.765,556.9 942.12,556.729 941.816,556.176C941.298,555.286 940.598,554.295 939.768,553.532C939.07,552.891 938.271,552.421 937.392,552.447C936.164,552.483 934.976,553.4 933.749,554.925C931.772,557.382 929.87,561.422 928.052,566.809C925.567,574.172 923.317,584.003 921.508,595.844C918.493,615.044 917.395,637.781 916.005,657.767C915.614,663.395 915.251,668.813 914.689,673.856C914.265,677.663 913.756,681.254 913.146,684.573C912.38,688.742 911.501,692.45 910.513,695.649C909.03,700.451 907.39,703.99 905.643,706.139C905.311,706.671 904.658,706.798 904.186,706.424C903.715,706.05 903.601,705.314 903.933,704.783C904.589,703.36 904.992,701.481 905.39,699.171C905.834,696.598 906.103,693.586 906.376,690.123C906.528,688.191 906.662,686.155 906.822,683.995C907.038,681.092 907.237,678.002 907.503,674.752C907.864,670.36 908.341,665.694 908.784,660.83C909.726,650.488 910.752,639.288 911.997,628.138C913.282,616.632 914.859,605.199 916.893,594.817C919.827,580.002 923.318,568.333 926.921,560.672C930.381,553.317 934.112,549.589 937.392,549.685C938.573,549.719 939.669,550.216 940.627,551.019C941.871,552.062 942.895,553.588 943.594,554.936Z" style="fill:url(#_Linear2);"/>
                </g>
                <g transform="matrix(1.12784,0,0,1,116.351,0)">
                    <path d="M943.371,555.091C943.599,555.505 943.485,556.05 943.118,556.307C942.75,556.564 942.267,556.436 942.039,556.021C941.403,554.917 940.504,553.332 939.42,552.223C938.803,551.591 938.129,551.112 937.392,551.129C935.347,551.178 934.425,553.246 933.595,556.861C932.014,563.752 931.378,575.963 928.708,593.011C925.692,611.821 924.902,631.899 923.964,649.294C923.687,654.44 923.436,659.357 923.019,663.928C922.702,667.398 922.31,670.669 921.824,673.696C921.216,677.48 920.491,680.865 919.633,683.801C918.419,687.954 916.989,691.14 915.334,693.27C915.085,693.669 914.596,693.764 914.243,693.484C913.889,693.203 913.804,692.651 914.053,692.252C915.163,690.003 915.761,686.842 916.247,682.906C916.451,681.253 916.619,679.486 916.783,677.588C917,675.085 917.172,672.392 917.349,669.515C917.456,667.769 917.565,665.963 917.692,664.099C917.871,661.486 918.084,658.765 918.289,655.949C918.862,648.031 919.456,639.386 920.233,630.439C921.322,617.889 922.824,604.767 925.225,592.235C928.52,575.247 929.605,563.021 931.447,556.18C932.767,551.274 934.585,548.935 937.392,549.002C938.573,549.031 939.679,549.724 940.629,550.783C941.776,552.062 942.716,553.841 943.371,555.091Z" style="fill:url(#_Linear3);"/>
                </g>
                <g transform="matrix(3.0723,0,0,1,-1716.7,0)">
                    <path d="M942.851,554.796C942.988,555.044 943.033,555.587 942.952,556.006C942.871,556.426 942.695,556.565 942.558,556.316C941.946,555.248 941.089,553.737 940.053,552.639C939.262,551.8 938.364,551.21 937.392,551.263C936.791,551.297 936.091,552.347 935.324,554.111C934.112,556.901 932.772,561.507 931.465,567.329C929.381,576.605 927.395,588.966 926.189,602.147C924.538,619.919 923.93,636.432 923.237,650.641C922.979,655.926 922.714,660.902 922.373,665.501C922.21,667.706 922.031,669.829 921.82,671.85C921.37,676.173 920.822,680.072 920.13,683.478C919.672,685.734 919.159,687.775 918.563,689.565C917.687,692.194 916.67,694.291 915.447,695.836C915.306,696.062 915.132,695.894 915.059,695.461C914.985,695.029 915.04,694.495 915.181,694.269C916.594,691.514 917.577,687.949 918.349,683.738C918.721,681.71 919.032,679.535 919.311,677.204C919.573,675.011 919.795,672.687 920.003,670.238C920.168,668.299 920.322,666.286 920.47,664.198C920.789,659.701 921.072,654.865 921.352,649.723C922.134,635.361 922.932,618.703 924.752,600.828C926.145,587.334 928.329,574.759 930.587,565.401C933.069,555.119 935.673,548.775 937.392,548.868C938.456,548.927 939.431,549.671 940.285,550.684C941.351,551.947 942.227,553.612 942.851,554.796Z" style="fill:url(#_Linear4);"/>
                </g>
                <g transform="matrix(2.49458,0,0,1,-1172.08,0)">
                    <path d="M942.983,554.604C943.194,554.987 943.24,555.725 943.086,556.25C942.933,556.776 942.637,556.891 942.427,556.508C941.834,555.48 941.008,554.333 940.012,553.533C939.234,552.908 938.35,552.51 937.392,552.564C935.009,552.693 929.255,561.865 923.695,577.223C920.177,586.942 916.759,599.183 914.365,613.378C913.462,618.678 912.788,625.473 912.197,632.916C911.418,642.712 910.855,653.631 910.199,663.864C910.003,666.919 909.802,669.915 909.564,672.79C909.163,677.623 908.709,682.124 908.209,686.117C907.87,688.822 907.51,691.259 907.122,693.415C906.214,698.453 905.233,701.88 904.157,703.143C903.936,703.485 903.644,703.313 903.507,702.76C903.37,702.207 903.439,701.48 903.661,701.138C904.325,699.834 904.713,697.168 905.09,693.612C905.382,690.858 905.59,687.611 905.819,683.962C906.101,679.467 906.343,674.427 906.643,669.088C906.96,663.457 907.358,657.53 907.754,651.586C908.782,636.191 910.046,620.787 911.918,610.666C914.656,596.087 918.415,583.621 922.26,573.851C928.45,558.121 934.853,549.43 937.392,549.567C938.487,549.629 939.488,550.19 940.364,551.004C941.453,552.016 942.347,553.391 942.983,554.604Z" style="fill:url(#_Linear5);"/>
                </g>
                <g transform="matrix(-1.12695,0,0,1,2241.95,0)">
                    <path d="M941.816,556.176C942.12,556.729 942.765,556.9 943.255,556.558C943.746,556.215 943.897,555.489 943.594,554.936C942.895,553.588 941.871,552.062 940.627,551.019C939.669,550.216 938.573,549.719 937.392,549.685C934.112,549.589 930.381,553.317 926.921,560.672C923.318,568.333 919.827,580.002 916.893,594.817C914.859,605.199 913.282,616.632 911.997,628.138C910.752,639.288 909.726,650.487 908.784,660.83C908.341,665.694 907.864,670.36 907.503,674.752C907.237,678.002 907.038,681.092 906.822,683.995C906.662,686.155 906.528,688.191 906.376,690.123C906.103,693.586 905.834,696.598 905.39,699.171C904.992,701.481 904.589,703.36 903.933,704.783C903.601,705.314 903.715,706.05 904.186,706.424C904.658,706.798 905.311,706.671 905.643,706.139C907.39,703.99 909.03,700.451 910.513,695.649C911.501,692.45 912.38,688.742 913.146,684.573C913.756,681.254 914.265,677.662 914.689,673.856C915.251,668.813 915.614,663.395 916.005,657.767C917.395,637.781 918.493,615.044 921.508,595.844C923.317,584.003 925.567,574.172 928.052,566.809C929.87,561.422 931.772,557.382 933.749,554.925C934.976,553.4 936.164,552.483 937.392,552.447C938.271,552.421 939.07,552.891 939.768,553.532C940.598,554.295 941.298,555.286 941.816,556.176Z" style="fill:url(#_Linear6);"/>
                </g>
                <g transform="matrix(-1.12784,0,0,1,2242.79,0)">
                    <path d="M942.039,556.021C942.267,556.436 942.75,556.564 943.118,556.307C943.485,556.05 943.599,555.505 943.371,555.091C942.716,553.841 941.776,552.062 940.629,550.783C939.679,549.724 938.573,549.031 937.392,549.002C934.585,548.935 932.767,551.274 931.447,556.18C929.605,563.021 928.52,575.247 925.225,592.235C922.824,604.767 921.322,617.889 920.233,630.439C919.456,639.386 918.862,648.031 918.289,655.949C918.084,658.765 917.871,661.486 917.692,664.099C917.565,665.963 917.456,667.769 917.349,669.515C917.172,672.392 917,675.085 916.783,677.587C916.619,679.486 916.451,681.253 916.247,682.906C915.761,686.842 915.163,690.003 914.053,692.252C913.804,692.651 913.889,693.203 914.243,693.484C914.596,693.764 915.085,693.669 915.334,693.27C916.989,691.14 918.419,687.954 919.633,683.801C920.491,680.865 921.216,677.48 921.824,673.696C922.31,670.669 922.702,667.398 923.019,663.928C923.436,659.357 923.687,654.44 923.964,649.294C924.902,631.898 925.692,611.821 928.708,593.011C931.378,575.963 932.014,563.752 933.595,556.861C934.425,553.246 935.347,551.178 937.392,551.129C938.129,551.112 938.803,551.591 939.42,552.223C940.504,553.332 941.403,554.917 942.039,556.021Z" style="fill:url(#_Linear7);"/>
                </g>
                <g transform="matrix(-3.0723,0,0,1,4075.84,0)">
                    <path d="M942.558,556.316C942.695,556.565 942.871,556.426 942.952,556.006C943.033,555.587 942.988,555.044 942.851,554.796C942.227,553.612 941.351,551.947 940.285,550.684C939.431,549.671 938.456,548.927 937.392,548.868C935.673,548.775 933.069,555.119 930.587,565.401C928.329,574.759 926.145,587.334 924.752,600.828C922.932,618.703 922.134,635.361 921.352,649.723C921.072,654.865 920.789,659.701 920.47,664.198C920.322,666.286 920.168,668.299 920.003,670.238C919.795,672.687 919.573,675.011 919.311,677.204C919.032,679.535 918.721,681.71 918.349,683.738C917.577,687.949 916.594,691.514 915.181,694.269C915.04,694.495 914.985,695.029 915.059,695.461C915.132,695.894 915.306,696.062 915.447,695.836C916.67,694.291 917.687,692.194 918.563,689.565C919.159,687.775 919.672,685.734 920.13,683.478C920.822,680.072 921.37,676.173 921.82,671.85C922.031,669.829 922.21,667.706 922.373,665.501C922.714,660.902 922.979,655.926 923.237,650.641C923.93,636.432 924.538,619.919 926.189,602.147C927.395,588.966 929.381,576.605 931.465,567.329C932.772,561.507 934.112,556.901 935.324,554.111C936.091,552.347 936.791,551.297 937.392,551.263C938.364,551.21 939.262,551.8 940.053,552.639C941.089,553.737 941.946,555.248 942.558,556.316Z" style="fill:url(#_Linear8);"/>
                </g>
                <g transform="matrix(-2.49458,0,0,1,3531.23,0)">
                    <path d="M942.427,556.508C942.637,556.891 942.933,556.776 943.086,556.25C943.24,555.725 943.194,554.987 942.983,554.604C942.347,553.391 941.453,552.016 940.364,551.004C939.488,550.19 938.487,549.629 937.392,549.567C934.853,549.43 928.45,558.121 922.26,573.851C918.415,583.621 914.656,596.087 911.918,610.666C910.046,620.787 908.782,636.191 907.754,651.586C907.358,657.53 906.96,663.457 906.643,669.088C906.343,674.427 906.101,679.468 905.819,683.962C905.59,687.611 905.382,690.858 905.09,693.612C904.713,697.168 904.325,699.834 903.661,701.138C903.439,701.48 903.37,702.207 903.507,702.76C903.644,703.313 903.936,703.485 904.157,703.143C905.233,701.88 906.214,698.453 907.122,693.415C907.51,691.259 907.87,688.822 908.209,686.117C908.709,682.124 909.163,677.623 909.564,672.79C909.802,669.915 910.003,666.919 910.199,663.864C910.855,653.631 911.418,642.712 912.197,632.916C912.788,625.473 913.462,618.678 914.365,613.378C916.759,599.183 920.177,586.942 923.695,577.223C929.255,561.865 935.009,552.693 937.392,552.564C938.35,552.51 939.234,552.908 940.012,553.533C941.008,554.333 941.834,555.48 942.427,556.508Z" style="fill:url(#_Linear9);"/>
                </g>
            </g>
            <g>
                <g transform="matrix(1.12695,0,0,1,117.193,0)">
                    <path d="M917.899,603.487C913.55,633.385 912.502,669.3 909.111,690.3" style="fill:none;stroke:white;stroke-width:2.82px;stroke-dasharray:2.82,4.22,0,0;stroke-dashoffset:8.45;"/>
                </g>
                <g transform="matrix(1.12784,0,0,1,116.351,0)">
                    <path d="M926.011,598.487C920.876,632.423 921.785,669.209 917.249,686.3" style="fill:none;stroke:white;stroke-width:2.81px;stroke-dasharray:2.81,4.22,0,0;stroke-dashoffset:8.44;"/>
                </g>
                <g transform="matrix(3.0723,0,0,1,-1716.7,0)">
                    <path d="M925.672,599.487C925.603,600.152 925.536,600.818 925.47,601.487C921.771,639.501 922.759,671.897 918.112,688.3" style="fill:none;stroke:white;stroke-width:1.31px;stroke-dasharray:1.31,1.97,0,0;stroke-dashoffset:3.94;"/>
                </g>
                <g transform="matrix(2.49458,0,0,1,-1172.08,0)">
                    <path d="M915.273,601.487C914.506,604.862 913.791,608.377 913.142,612.022C909.789,630.845 908.868,668.126 906.67,688.59" style="fill:none;stroke:white;stroke-width:1.58px;stroke-dasharray:1.58,2.37,0,0;stroke-dashoffset:4.74;"/>
                </g>
                <g transform="matrix(-1.12695,0,0,1,2241.95,0)">
                    <path d="M917.899,603.487C913.55,633.385 912.502,669.3 909.111,690.3" style="fill:none;stroke:white;stroke-width:2.82px;stroke-dasharray:2.82,4.22,0,0;stroke-dashoffset:8.45;"/>
                </g>
                <g transform="matrix(-1.12784,0,0,1,2242.79,0)">
                    <path d="M926.011,598.487C920.876,632.423 921.785,669.209 917.249,686.3" style="fill:none;stroke:white;stroke-width:2.81px;stroke-dasharray:2.81,4.22,0,0;stroke-dashoffset:8.44;"/>
                </g>
                <g transform="matrix(-3.0723,0,0,1,4075.84,0)">
                    <path d="M925.672,599.487C925.603,600.152 925.536,600.818 925.47,601.487C921.771,639.501 922.759,671.897 918.112,688.3" style="fill:none;stroke:white;stroke-width:1.31px;stroke-dasharray:1.31,1.97,0,0;stroke-dashoffset:3.94;"/>
                </g>
                <g transform="matrix(-2.49458,0,0,1,3531.23,0)">
                    <path d="M915.273,601.487C914.506,604.862 913.791,608.377 913.142,612.022C909.805,630.756 908.877,667.776 906.701,688.3" style="fill:none;stroke:white;stroke-width:1.58px;stroke-dasharray:1.58,2.37,0,0;stroke-dashoffset:4.74;"/>
                </g>
            </g>
            <g transform="matrix(1,0,0,1,230.662,0)">
                <path d="M841.87,699.242C841.87,699.242 825.736,539.798 948.909,539.798C1072.08,539.798 1055.95,699.242 1055.95,699.242C1055.95,702.985 1007.99,706.023 948.909,706.023C889.833,706.023 841.87,702.985 841.87,699.242Z" style="fill:url(#_Radial10);"/>
            </g>
            <g>
                <g transform="matrix(1,0,0,1,3.33062,-0.387622)">
                    <path d="M1089.15,703.659C1089.13,703.386 1089.33,703.145 1089.6,703.121C1089.88,703.096 1090.12,703.298 1090.14,703.571C1092.8,730.885 1090.89,753.776 1086.87,776.442C1081.48,806.753 1072.35,836.66 1065.22,876.244C1064.06,882.675 1062.95,889.36 1061.91,896.344C1059.77,910.693 1057.91,926.303 1056.63,943.565C1056.55,944.665 1055.59,945.491 1054.49,945.408C1053.38,945.325 1052.56,944.364 1052.64,943.263C1054.32,921.553 1056.81,902.428 1059.83,885.167C1069.49,830.033 1083.81,793.896 1088.46,752.095C1090.14,737.062 1090.59,721.301 1089.15,703.659Z" style="fill:url(#_Linear11);"/>
                </g>
                <g transform="matrix(1,0,0,1,19.8468,-0.387622)">
                    <path d="M1086.16,704.501C1086.2,704.231 1086.46,704.049 1086.73,704.094C1087,704.139 1087.18,704.395 1087.14,704.665C1069.89,810.904 1028.56,881.818 1000.53,987.288C996.385,1002.89 992.528,1019.25 989.063,1036.59C984.45,1059.67 980.522,1084.5 977.641,1111.62C977.524,1112.72 976.537,1113.52 975.44,1113.4C974.342,1113.28 973.546,1112.3 973.664,1111.2C976.598,1083.95 980.531,1059 985.249,1035.82C988.792,1018.41 992.772,1001.99 997.051,986.35C1025.84,881.085 1067.97,810.586 1086.16,704.501Z" style="fill:url(#_Linear12);"/>
                </g>
                <g transform="matrix(1,0,0,1,3.33062,-0.387622)">
                    <path d="M1078.99,702.506C1078.99,702.232 1079.22,702.013 1079.49,702.018C1079.77,702.022 1079.99,702.248 1079.98,702.521C1079.74,726.3 1077.97,750.193 1075.24,773.82C1066.97,845.383 1050.01,914.521 1039.86,970.629C1033.77,1004.29 1030.09,1033.22 1032.54,1055.17C1032.66,1056.27 1031.87,1057.26 1030.77,1057.38C1029.67,1057.5 1028.68,1056.7 1028.56,1055.61C1026.47,1036.48 1028.84,1012.12 1033.61,984.033C1037.91,958.708 1044.17,930.331 1050.65,899.975C1063.61,839.175 1077.56,770.445 1078.99,702.506Z" style="fill:url(#_Linear13);"/>
                </g>
                <g transform="matrix(1,0,0,1,-3.49519,-1.45711)">
                    <path d="M1079.01,702.38C1079.08,702.116 1079.36,701.962 1079.62,702.036C1079.88,702.11 1080.04,702.384 1079.96,702.647C1063.1,764.261 1032.49,818.794 1008.13,867.471C995.595,892.524 984.745,916.02 978.279,938.13C971.82,960.213 969.731,980.898 975.051,1000.42C975.34,1001.48 974.71,1002.58 973.645,1002.87C972.58,1003.16 971.48,1002.53 971.191,1001.47C965.73,981.262 967.758,959.838 974.574,937.034C981.226,914.775 992.434,891.188 1005.35,866.06C1030.19,817.729 1061.44,763.685 1079.01,702.38Z" style="fill:url(#_Linear14);"/>
                </g>
                <g transform="matrix(1,0,0,1,-2.08809,-5.33321)">
                    <path d="M1079,702.431C1079.04,702.161 1079.3,701.979 1079.57,702.024C1079.84,702.07 1080.02,702.326 1079.97,702.596C1066.98,782.821 1049.35,806.923 1032.5,884.854C1029.39,899.229 1026.33,915.443 1023.27,934.174C1019.79,955.45 1016.29,979.971 1012.94,1008.77C1012.81,1009.87 1011.82,1010.65 1010.72,1010.53C1009.63,1010.4 1008.84,1009.4 1008.97,1008.31C1012.4,979.441 1015.89,954.854 1019.52,933.548C1022.72,914.768 1026.02,898.538 1029.31,884.145C1047.05,806.392 1065.03,782.512 1079,702.431Z" style="fill:url(#_Linear15);"/>
                </g>
                <g transform="matrix(1,0,0,1,5.84927,-6.30515)">
                    <path d="M1079,702.431C1079.04,702.162 1079.3,701.979 1079.57,702.024C1079.84,702.07 1080.02,702.326 1079.97,702.596C1068.67,772.734 1057.37,824.748 1048.36,864.066C1041.67,893.23 1036.28,915.4 1033.1,932.799C1028.12,960.005 1028.52,975.254 1038.82,987.561C1039.53,988.408 1039.41,989.671 1038.57,990.378C1037.72,991.086 1036.46,990.972 1035.75,990.125C1024.85,977.048 1023.84,960.908 1029.3,932.091C1032.6,914.67 1038.27,892.507 1045.32,863.35C1054.79,824.173 1066.8,772.362 1079,702.431Z" style="fill:url(#_Linear16);"/>
                </g>
                <g transform="matrix(1,0,0,1,16.0389,-7.28236)">
                    <path d="M1079,702.445C1079.03,702.174 1079.28,701.985 1079.55,702.022C1079.83,702.06 1080.02,702.311 1079.98,702.582C1068.68,787.041 1026.19,826.381 1003.63,905.422C998.841,922.215 994.982,940.812 992.454,962.027C989.495,986.861 988.36,1015.28 989.959,1048.63C990.011,1049.73 989.157,1050.67 988.055,1050.72C986.952,1050.77 986.015,1049.92 985.963,1048.82C984.43,1015.22 985.558,986.571 988.683,961.566C991.358,940.158 995.491,921.42 1000.5,904.509C1023.83,825.677 1066.81,786.799 1079,702.445Z" style="fill:url(#_Linear17);"/>
                </g>
                <g transform="matrix(1,0,0,1,41.1938,-8.98735)">
                    <path d="M1079.01,702.374C1079.09,702.111 1079.36,701.961 1079.62,702.038C1079.89,702.115 1080.04,702.39 1079.96,702.653C1040,841.685 1049.27,883.61 1028.5,946.253C1024.46,958.442 1019.29,971.412 1012.38,986.008C1004.64,1002.37 994.696,1020.78 981.793,1042.47C981.228,1043.41 980,1043.73 979.052,1043.16C978.103,1042.6 977.792,1041.37 978.357,1040.42C991.222,1018.88 1001.1,1000.57 1008.87,984.336C1015.76,969.921 1020.99,957.132 1025.09,945.104C1046.36,882.725 1037.65,840.797 1079.01,702.374Z" style="fill:url(#_Linear18);"/>
                </g>
                <g transform="matrix(1,0,0,1,28.9955,-8.50488)">
                    <path d="M1078.99,702.554C1078.97,702.281 1079.17,702.041 1079.45,702.019C1079.72,701.997 1079.96,702.201 1079.98,702.474C1087.42,789.443 1088.61,873.469 1078.47,944.451C1075.25,967.012 1070.91,988.265 1065.22,1007.87C1055.17,1042.52 1040.96,1072.03 1021.95,1094.68C1021.24,1095.52 1019.97,1095.63 1019.13,1094.92C1018.28,1094.21 1018.18,1092.95 1018.88,1092.11C1037.63,1069.87 1051.51,1040.83 1061.58,1006.8C1067.32,987.375 1071.85,966.336 1075.24,943.975C1085.97,873.241 1085.6,789.398 1078.99,702.554Z" style="fill:url(#_Linear19);"/>
                </g>
                <g transform="matrix(1,0,0,1,53.4658,-9.45404)">
                    <path d="M1079,702.414C1079.06,702.146 1079.32,701.973 1079.59,702.028C1079.85,702.083 1080.03,702.345 1079.97,702.613C1070.62,749.757 1072.13,789.251 1072.27,827.076C1072.37,854.959 1071.74,881.943 1065.52,910.381C1063.06,921.605 1059.74,933.055 1055.23,944.865C1049.37,960.211 1041.5,976.158 1031.05,993.046C1030.47,993.984 1029.23,994.273 1028.3,993.691C1027.36,993.11 1027.07,991.876 1027.65,990.938C1038,974.302 1045.74,958.574 1051.6,943.468C1056.1,931.861 1059.47,920.62 1062,909.593C1077.32,842.865 1061.75,783.933 1079,702.414Z" style="fill:url(#_Linear20);"/>
                </g>
                <g transform="matrix(1,0,0,1,68.5245,-9.9552)">
                    <path d="M1078.99,702.486C1079.01,702.212 1079.24,702.003 1079.51,702.018C1079.79,702.034 1080,702.268 1079.98,702.541C1075.39,792.708 1063.28,871.001 1055.84,956.14C1054.59,970.419 1053.47,984.889 1052.52,999.641C1051.16,1020.76 1050.14,1042.46 1049.72,1065C1049.7,1066.1 1048.79,1066.98 1047.68,1066.95C1046.58,1066.93 1045.7,1066.02 1045.72,1064.92C1046.18,1042.32 1047.19,1020.56 1048.64,999.382C1049.65,984.603 1050.88,970.109 1052.25,955.811C1060.41,870.742 1073.47,792.597 1078.99,702.486Z" style="fill:url(#_Linear21);"/>
                </g>
                <g transform="matrix(1,0,0,1,81.8268,-10.0265)">
                    <path d="M1078.99,702.474C1079.01,702.202 1079.25,701.998 1079.53,702.019C1079.8,702.041 1080,702.28 1079.98,702.553C1075.05,768.926 1073.88,819.994 1074.61,861.845C1075.67,922.858 1080.87,964.265 1084.38,1004.94C1086.95,1034.82 1088.58,1064.3 1087.16,1100.78C1087.12,1101.89 1086.18,1102.75 1085.08,1102.7C1083.98,1102.66 1083.12,1101.73 1083.16,1100.62C1084.65,1064.32 1082.99,1034.99 1080.59,1005.25C1077.3,964.505 1072.58,922.984 1072.08,861.878C1071.74,819.977 1073.42,768.868 1078.99,702.474Z" style="fill:url(#_Linear22);"/>
                </g>
                <g transform="matrix(1,0,0,1,78.3129,3.58116)">
                    <path d="M1079,702.609C1078.95,702.341 1079.12,702.08 1079.39,702.027C1079.66,701.974 1079.92,702.149 1079.97,702.418C1084.73,725.949 1084.54,750.479 1081.31,775.854C1073.4,838.106 1047.36,905.478 1031.53,975.612C1025.08,1004.17 1020.27,1033.17 1019.21,1062.52C1019.17,1063.62 1018.24,1064.48 1017.14,1064.44C1016.03,1064.4 1015.17,1063.47 1015.21,1062.37C1016.35,1032.78 1021.15,1003.52 1027.83,974.765C1044.07,904.767 1071.03,837.756 1079.57,775.623C1083.03,750.431 1083.49,726.051 1079,702.609Z" style="fill:url(#_Linear23);"/>
                </g>
                <g transform="matrix(1,0,0,1,99.3756,-9.88394)">
                    <path d="M1079.66,702.463C1079.65,702.19 1079.86,701.958 1080.14,701.947C1080.41,701.935 1080.64,702.148 1080.65,702.421C1083.59,763.103 1095.97,825.939 1097.63,890.037C1098.06,906.751 1097.79,923.551 1096.38,940.415C1094.32,965.051 1089.86,989.814 1082.07,1014.66C1081.73,1015.72 1080.61,1016.3 1079.56,1015.97C1078.5,1015.64 1077.92,1014.51 1078.25,1013.46C1086.03,988.912 1090.39,964.43 1092.59,940.086C1094.1,923.359 1094.6,906.695 1094.36,890.103C1093.43,826.047 1081.87,763.122 1079.66,702.463Z" style="fill:url(#_Linear24);"/>
                </g>
                <g transform="matrix(1,0,0,1,99.3756,3.58116)">
                    <path d="M1079.66,702.449C1079.66,702.175 1079.88,701.95 1080.15,701.946C1080.42,701.943 1080.65,702.162 1080.65,702.436C1081.72,756.844 1079.71,796.44 1076.19,826.751C1069.6,883.635 1057.82,907.833 1051.17,935.804C1046.67,954.711 1044.52,975.363 1048.07,1009.31C1048.18,1010.4 1047.38,1011.39 1046.28,1011.5C1045.18,1011.62 1044.2,1010.82 1044.09,1009.72C1040.57,975.157 1042.76,954.124 1047.47,934.913C1054.3,907.064 1066.43,883.095 1073.68,826.445C1077.54,796.239 1080.05,756.754 1079.66,702.449Z" style="fill:url(#_Linear25);"/>
                </g>
                <g transform="matrix(1,0,0,1,19.8468,-0.387622)">
                    <path d="M1086.15,704.527C1086.19,704.255 1086.43,704.059 1086.7,704.09C1086.98,704.121 1087.17,704.367 1087.14,704.639C1078.84,781.895 1066.16,837.61 1055.65,880.379C1048.2,910.693 1041.87,934.483 1038.97,954.836C1035.65,978.141 1036.86,996.881 1046.46,1015.87C1046.96,1016.85 1046.57,1018.06 1045.58,1018.55C1044.6,1019.05 1043.39,1018.65 1042.89,1017.67C1032.96,997.929 1031.56,978.463 1035.15,954.279C1038.18,933.843 1044.81,909.999 1052.62,879.618C1063.58,837.028 1076.94,781.563 1086.15,704.527Z" style="fill:url(#_Linear26);"/>
                </g>
                <g transform="matrix(1,0,0,1,30.331,3.10044)">
                    <path d="M1089.25,702.67C1089.39,702.434 1089.7,702.357 1089.93,702.497C1090.17,702.636 1090.25,702.941 1090.11,703.176C1082.41,716.39 1077.7,730.941 1074.78,746.365C1067.23,786.263 1071.82,831.993 1068.06,875.585C1066.43,894.46 1063.17,912.919 1056.88,930.34C1056.51,931.378 1055.36,931.915 1054.32,931.538C1053.28,931.161 1052.75,930.013 1053.12,928.976C1059.36,911.89 1062.5,893.759 1064.28,875.24C1068.47,831.646 1064.85,785.831 1073.05,746.023C1076.25,730.496 1081.26,715.884 1089.25,702.67Z" style="fill:url(#_Linear27);"/>
                </g>
                <g transform="matrix(1,0,0,1,46.8792,2.47419)">
                    <path d="M1089.2,703.061C1089.13,702.798 1089.28,702.523 1089.54,702.447C1089.81,702.37 1090.08,702.522 1090.16,702.785C1106.02,756.394 1111.06,805.546 1111.21,851.003C1111.38,899.884 1105.97,944.49 1102.21,985.753C1099.33,1017.4 1097.39,1047.07 1099.97,1075.22C1100.07,1076.32 1099.26,1077.3 1098.15,1077.39C1097.06,1077.49 1096.08,1076.68 1095.98,1075.58C1093.45,1047.2 1095.34,1017.28 1098.43,985.398C1102.42,944.237 1108.37,899.785 1108.68,850.999C1108.97,805.692 1104.46,756.654 1089.2,703.061Z" style="fill:url(#_Linear28);"/>
                </g>
                <g transform="matrix(-1,0,0,1,2355.74,-0.387622)">
                    <path d="M1090.14,703.658C1090.17,703.385 1089.96,703.144 1089.69,703.121C1089.42,703.097 1089.18,703.299 1089.15,703.572C1089.15,703.572 1077.36,829.046 1068.95,920.224C1067.73,933.497 1066.59,946.044 1065.57,957.372C1062.61,990.436 1060.65,1013.11 1060.65,1013.11C1060.56,1014.21 1061.37,1015.18 1062.47,1015.27C1063.57,1015.37 1064.54,1014.55 1064.64,1013.45C1064.64,1013.45 1066.64,990.788 1069.45,957.71C1070.41,946.377 1071.45,933.822 1072.54,920.537C1080.05,829.281 1090.14,703.658 1090.14,703.658Z" style="fill:url(#_Linear29);"/>
                </g>
                <g transform="matrix(-1,0,0,1,2339.22,-0.387622)">
                    <path d="M1087.14,704.621C1087.16,704.348 1086.96,704.11 1086.69,704.088C1086.41,704.067 1086.17,704.272 1086.15,704.545C1086.15,704.545 1075.57,829.635 1068.05,920.532C1066.96,933.764 1065.93,946.271 1065.03,957.564C1062.38,990.526 1060.65,1013.13 1060.65,1013.13C1060.57,1014.23 1061.39,1015.19 1062.49,1015.27C1063.59,1015.36 1064.56,1014.54 1064.64,1013.44C1064.64,1013.44 1066.42,990.84 1068.91,957.866C1069.76,946.569 1070.68,934.053 1071.64,920.811C1078.26,829.844 1087.14,704.621 1087.14,704.621Z" style="fill:url(#_Linear30);"/>
                </g>
                <g transform="matrix(-1,0,0,1,2355.74,-0.387622)">
                    <path d="M1079.96,702.643C1080.04,702.379 1079.88,702.106 1079.62,702.035C1079.35,701.963 1079.08,702.12 1079.01,702.384C1064.18,756.004 1046.95,805.271 1037.2,876.464C1033.59,902.812 1030.96,932.157 1029.95,965.833C1029.15,992.73 1029.43,1022.39 1030.89,1055.48C1030.94,1056.58 1031.88,1057.44 1032.98,1057.39C1034.08,1057.34 1034.94,1056.4 1034.89,1055.3C1033.35,1022.31 1033.09,992.751 1033.72,965.934C1034.52,932.382 1036.75,903.125 1040.08,876.843C1049.08,805.682 1065.73,756.321 1079.96,702.643Z" style="fill:url(#_Linear31);"/>
                </g>
                <g transform="matrix(-1,0,0,1,2362.56,-1.45711)">
                    <path d="M1079.91,702.771C1080.05,702.537 1079.98,702.231 1079.74,702.089C1079.51,701.948 1079.2,702.022 1079.06,702.256C1052.47,745.492 1022.97,782.676 1000.42,834.287C991.049,855.738 982.829,879.664 976.618,907.558C971.589,930.14 967.911,955.323 965.821,983.852C965.742,984.953 966.571,985.911 967.672,985.99C968.773,986.069 969.731,985.239 969.81,984.138C971.802,955.81 975.471,930.818 980.303,908.365C986.265,880.656 994.044,856.816 1003.09,835.432C1024.97,783.684 1053.92,746.227 1079.91,702.771Z" style="fill:url(#_Linear32);"/>
                </g>
                <g transform="matrix(-1,0,0,1,2361.15,-5.33321)">
                    <path d="M1079.95,702.676C1080.04,702.417 1079.91,702.135 1079.65,702.045C1079.39,701.955 1079.11,702.092 1079.02,702.351C1055.29,769.516 1016.22,815.486 981.98,858.955C964.864,880.683 948.924,901.778 936.716,924.568C926.356,943.906 918.705,964.466 915.146,987.569C914.979,988.66 915.73,989.681 916.821,989.848C917.912,990.015 918.933,989.265 919.1,988.174C922.542,965.522 930.081,945.395 940.126,926.383C952.11,903.701 967.685,882.608 984.442,860.874C1018.33,816.917 1056.93,770.315 1079.95,702.676Z" style="fill:url(#_Linear33);"/>
                </g>
                <g transform="matrix(-1,0,0,1,2353.22,-6.30515)">
                    <path d="M1079.94,702.713C1080.05,702.462 1079.94,702.169 1079.68,702.059C1079.43,701.949 1079.14,702.064 1079.03,702.314C1065.81,731.972 1054.72,761.323 1045.17,789.51C1029.49,835.754 1017.87,878.84 1007.67,914.979C1004.3,926.944 1001.09,938.148 997.935,948.45C991.842,968.345 985.97,984.862 979.494,996.961C978.974,997.935 979.343,999.148 980.316,999.668C981.29,1000.19 982.503,999.819 983.023,998.845C989.571,986.554 995.569,969.802 1001.67,949.585C1004.79,939.242 1007.94,927.988 1011.21,915.96C1021.06,879.765 1032.1,836.571 1047.21,790.187C1056.41,761.931 1067.11,732.487 1079.94,702.713Z" style="fill:url(#_Linear34);"/>
                </g>
                <g transform="matrix(-1,0,0,1,2343.03,-7.28236)">
                    <path d="M1079.98,702.494C1079.97,702.22 1079.74,702.007 1079.47,702.018C1079.19,702.029 1078.98,702.26 1078.99,702.533C1083.39,829.038 1060.07,869.552 1050.97,978.691C1049.76,993.247 1048.8,1009.02 1048.22,1026.38C1047.51,1047.65 1047.38,1071.3 1047.94,1098C1047.96,1099.11 1048.88,1099.98 1049.98,1099.96C1051.09,1099.93 1051.96,1099.02 1051.94,1097.92C1051.34,1071.3 1051.48,1047.72 1052.11,1026.5C1052.62,1009.21 1053.46,993.487 1054.56,978.976C1062.82,869.742 1085.57,828.985 1079.98,702.494Z" style="fill:url(#_Linear35);"/>
                </g>
                <g transform="matrix(-1,0,0,1,2317.87,-8.98735)">
                    <path d="M1079.97,702.606C1080.02,702.337 1079.85,702.077 1079.58,702.026C1079.31,701.975 1079.05,702.152 1079,702.421C1071.15,742.131 1062.77,782.117 1060.99,827.172C1060.2,847.1 1060.65,868.021 1063.11,890.331C1065.27,909.901 1068.99,930.529 1074.55,952.507C1074.82,953.577 1075.91,954.224 1076.98,953.952C1078.05,953.679 1078.7,952.59 1078.42,951.52C1072.84,929.744 1069.17,909.289 1066.86,889.901C1064.23,867.786 1063.39,847.049 1063.88,827.266C1065.01,782.315 1072.75,742.319 1079.97,702.606Z" style="fill:url(#_Linear36);"/>
                </g>
                <g transform="matrix(-1,0,0,1,2330.07,-8.50488)">
                    <path d="M1079.96,702.373C1079.88,702.111 1079.61,701.96 1079.35,702.038C1079.08,702.115 1078.93,702.391 1079.01,702.654C1087.8,733.219 1099.07,751.951 1099.98,820.126C1100.34,847.109 1098.99,881.822 1095.41,928.086C1093.77,949.44 1091.71,973.259 1089.03,999.905C1088.92,1001 1089.72,1001.98 1090.82,1002.09C1091.92,1002.2 1092.9,1001.4 1093.01,1000.3C1095.62,973.61 1097.71,949.76 1099.2,928.365C1102.45,881.956 1103.2,847.124 1102.51,820.077C1100.76,751.624 1089.18,732.955 1079.96,702.373Z" style="fill:url(#_Linear37);"/>
                </g>
                <g transform="matrix(-1,0,0,1,2305.6,-9.45404)">
                    <path d="M1079.95,702.695C1080.05,702.44 1079.92,702.152 1079.67,702.052C1079.41,701.952 1079.12,702.078 1079.02,702.332C1052,770.175 1030.01,838.611 1022.97,908.81C1021.06,927.773 1020.23,946.864 1020.73,966.104C1021.46,994.191 1025.02,1022.59 1031.86,1051.36C1032.12,1052.43 1033.19,1053.1 1034.27,1052.84C1035.34,1052.59 1036.01,1051.51 1035.75,1050.43C1028.62,1020.73 1025.12,991.42 1024.43,962.439C1023.71,932.581 1025.98,903.059 1030.64,873.786C1039.84,815.979 1058.15,759.152 1079.95,702.695Z" style="fill:url(#_Linear38);"/>
                </g>
                <g transform="matrix(-1,0,0,1,2290.54,-9.9552)">
                    <path d="M1079.98,702.565C1080.01,702.293 1079.81,702.049 1079.54,702.02C1079.27,701.992 1079.02,702.19 1078.99,702.462C1068.27,800.141 1087.72,881.454 1081.63,951.887C1080.39,966.244 1078.09,980.144 1074.25,993.646C1068.65,1013.29 1059.8,1032.1 1046.13,1050.19C1045.46,1051.07 1045.64,1052.33 1046.52,1052.99C1047.4,1053.66 1048.65,1053.48 1049.32,1052.6C1063.28,1034.07 1072.35,1014.83 1077.99,994.704C1081.84,980.955 1084.09,966.795 1085.23,952.182C1090.72,881.633 1070.27,800.442 1079.98,702.565Z" style="fill:url(#_Linear39);"/>
                </g>
                <g transform="matrix(-1,0,0,1,2277.24,-10.0265)">
                    <path d="M1079.98,702.473C1079.96,702.2 1079.72,701.997 1079.44,702.019C1079.17,702.042 1078.97,702.281 1078.99,702.554C1086.61,801.574 1058.42,870.054 1053.46,946.865C1052.58,960.671 1052.43,974.746 1053.4,989.306C1054.71,1009.12 1058.07,1029.84 1064.26,1052.01C1064.56,1053.07 1065.66,1053.69 1066.72,1053.39C1067.79,1053.1 1068.41,1051.99 1068.11,1050.93C1061.96,1029.05 1058.66,1008.6 1057.28,989.041C1056.27,974.65 1056.3,960.739 1057.06,947.082C1061.35,870.218 1088.65,801.422 1079.98,702.473Z" style="fill:url(#_Linear40);"/>
                </g>
                <g transform="matrix(-1,0,0,1,2280.75,3.58116)">
                    <path d="M1079.98,702.549C1080,702.276 1079.79,702.038 1079.52,702.019C1079.25,701.999 1079.01,702.205 1078.99,702.478C1078.99,702.478 1068.07,843.876 1060.3,946.619C1059.16,961.576 1058.11,975.714 1057.17,988.478C1054.44,1025.73 1052.64,1051.28 1052.64,1051.28C1052.57,1052.38 1053.4,1053.34 1054.5,1053.41C1055.6,1053.49 1056.56,1052.66 1056.63,1051.56C1056.63,1051.56 1058.48,1026.02 1061.05,988.754C1061.93,975.986 1062.89,961.841 1063.89,946.875C1070.76,844.068 1079.98,702.549 1079.98,702.549Z" style="fill:url(#_Linear41);"/>
                </g>
                <g transform="matrix(-1,0,0,1,2339.22,-0.387622)">
                    <path d="M1087.1,704.795C1087.21,704.548 1087.11,704.252 1086.86,704.135C1086.61,704.018 1086.32,704.123 1086.2,704.371C1069.94,738.298 1057.22,774.523 1046.51,810.922C1030.81,864.25 1019.4,917.934 1007.51,965.288C1004.85,975.875 1002.18,986.146 999.426,996.027C992.064,1022.5 984.168,1046.16 974.577,1065.53C974.088,1066.51 974.494,1067.71 975.484,1068.2C976.473,1068.69 977.674,1068.29 978.163,1067.3C987.817,1047.72 995.827,1023.83 1003.16,997.057C1005.87,987.133 1008.49,976.81 1011.08,966.168C1022.58,918.747 1033.41,864.97 1048.57,811.518C1058.9,775.093 1071.21,738.814 1087.1,704.795Z" style="fill:url(#_Linear42);"/>
                </g>
                <g transform="matrix(-1,0,0,1,2328.73,3.10044)">
                    <path d="M1090.18,702.942C1090.19,702.669 1089.97,702.438 1089.7,702.427C1089.43,702.417 1089.19,702.63 1089.18,702.904C1086.19,771.494 1082.64,839.185 1078.31,905.516C1076.08,939.622 1073.6,973.362 1070.96,1006.69C1068.26,1040.83 1065.4,1074.54 1062.17,1107.73C1062.07,1108.83 1062.87,1109.81 1063.97,1109.91C1065.07,1110.02 1066.05,1109.21 1066.15,1108.11C1069.18,1076.2 1071.98,1043.82 1074.42,1011.02C1076.02,989.594 1077.45,967.984 1078.81,946.216C1083.74,866.96 1087.34,785.598 1090.18,702.942Z" style="fill:url(#_Linear43);"/>
                </g>
                <g transform="matrix(-1,0,0,1,2312.19,2.47419)">
                    <path d="M1090.18,702.927C1090.18,702.653 1089.96,702.429 1089.68,702.427C1089.41,702.425 1089.19,702.646 1089.18,702.919C1087.84,806.455 1056,861.796 1048.28,920.012C1046.62,932.485 1046.07,945.091 1047.15,958.31C1048.56,975.487 1052.74,993.698 1060.79,1014.02C1061.2,1015.05 1062.36,1015.55 1063.39,1015.14C1064.41,1014.73 1064.91,1013.57 1064.51,1012.54C1056.58,992.645 1052.49,974.808 1051.03,957.983C1049.91,945.042 1050.35,932.7 1051.85,920.469C1059.01,862.186 1090.05,806.461 1090.18,702.927Z" style="fill:url(#_Linear44);"/>
                </g>
            </g>
        </g>
    </g>
    <defs>
        <radialGradient id="_Radial1" cx="0" cy="0" r="1" gradientUnits="userSpaceOnUse" gradientTransform="matrix(1.35523e-15,22.1326,-12.5829,7.7048e-16,948.779,573.198)"><stop offset="0" style="stop-color:white;stop-opacity:1"/><stop offset="0.62" style="stop-color:rgb(234,243,254);stop-opacity:0.89"/><stop offset="0.83" style="stop-color:rgb(182,212,251);stop-opacity:0.61"/><stop offset="1" style="stop-color:rgb(125,178,248);stop-opacity:0.3"/></radialGradient>
        <linearGradient id="_Linear2" x1="0" y1="0" x2="1" y2="0" gradientUnits="userSpaceOnUse" gradientTransform="matrix(7.80713e-15,143.686,-127.5,8.79822e-15,942.705,555.556)"><stop offset="0" style="stop-color:rgb(158,170,250);stop-opacity:0.25"/><stop offset="0.69" style="stop-color:rgb(158,170,250);stop-opacity:1"/><stop offset="0.88" style="stop-color:rgb(158,170,250);stop-opacity:0.86"/><stop offset="0.95" style="stop-color:rgb(158,170,250);stop-opacity:0.53"/><stop offset="1" style="stop-color:rgb(158,170,250);stop-opacity:0.15"/></linearGradient>
        <linearGradient id="_Linear3" x1="0" y1="0" x2="1" y2="0" gradientUnits="userSpaceOnUse" gradientTransform="matrix(7.80095e-15,143.686,-127.399,8.79822e-15,942.705,555.556)"><stop offset="0" style="stop-color:rgb(158,170,250);stop-opacity:0.25"/><stop offset="0.69" style="stop-color:rgb(158,170,250);stop-opacity:1"/><stop offset="0.88" style="stop-color:rgb(158,170,250);stop-opacity:0.86"/><stop offset="0.95" style="stop-color:rgb(158,170,250);stop-opacity:0.53"/><stop offset="1" style="stop-color:rgb(158,170,250);stop-opacity:0.15"/></linearGradient>
        <linearGradient id="_Linear4" x1="0" y1="0" x2="1" y2="0" gradientUnits="userSpaceOnUse" gradientTransform="matrix(2.86373e-15,143.686,-46.7682,8.79822e-15,942.705,555.556)"><stop offset="0" style="stop-color:rgb(158,170,250);stop-opacity:0.25"/><stop offset="0.69" style="stop-color:rgb(158,170,250);stop-opacity:1"/><stop offset="0.88" style="stop-color:rgb(158,170,250);stop-opacity:0.86"/><stop offset="0.95" style="stop-color:rgb(158,170,250);stop-opacity:0.53"/><stop offset="1" style="stop-color:rgb(158,170,250);stop-opacity:0.15"/></linearGradient>
        <linearGradient id="_Linear5" x1="0" y1="0" x2="1" y2="0" gradientUnits="userSpaceOnUse" gradientTransform="matrix(3.52693e-15,143.686,-57.5992,8.79822e-15,942.705,555.556)"><stop offset="0" style="stop-color:rgb(158,170,250);stop-opacity:0.25"/><stop offset="0.69" style="stop-color:rgb(158,170,250);stop-opacity:1"/><stop offset="0.88" style="stop-color:rgb(158,170,250);stop-opacity:0.86"/><stop offset="0.95" style="stop-color:rgb(158,170,250);stop-opacity:0.53"/><stop offset="1" style="stop-color:rgb(158,170,250);stop-opacity:0.15"/></linearGradient>
        <linearGradient id="_Linear6" x1="0" y1="0" x2="1" y2="0" gradientUnits="userSpaceOnUse" gradientTransform="matrix(-7.80713e-15,143.686,127.5,8.79822e-15,942.705,555.556)"><stop offset="0" style="stop-color:rgb(158,170,250);stop-opacity:0.25"/><stop offset="0.69" style="stop-color:rgb(158,170,250);stop-opacity:1"/><stop offset="0.88" style="stop-color:rgb(158,170,250);stop-opacity:0.86"/><stop offset="0.95" style="stop-color:rgb(158,170,250);stop-opacity:0.53"/><stop offset="1" style="stop-color:rgb(158,170,250);stop-opacity:0.15"/></linearGradient>
        <linearGradient id="_Linear7" x1="0" y1="0" x2="1" y2="0" gradientUnits="userSpaceOnUse" gradientTransform="matrix(-7.80095e-15,143.686,127.399,8.79822e-15,942.705,555.556)"><stop offset="0" style="stop-color:rgb(158,170,250);stop-opacity:0.25"/><stop offset="0.69" style="stop-color:rgb(158,170,250);stop-opacity:1"/><stop offset="0.88" style="stop-color:rgb(158,170,250);stop-opacity:0.86"/><stop offset="0.95" style="stop-color:rgb(158,170,250);stop-opacity:0.53"/><stop offset="1" style="stop-color:rgb(158,170,250);stop-opacity:0.15"/></linearGradient>
        <linearGradient id="_Linear8" x1="0" y1="0" x2="1" y2="0" gradientUnits="userSpaceOnUse" gradientTransform="matrix(-2.86373e-15,143.686,46.7682,8.79822e-15,942.705,555.556)"><stop offset="0" style="stop-color:rgb(158,170,250);stop-opacity:0.25"/><stop offset="0.69" style="stop-color:rgb(158,170,250);stop-opacity:1"/><stop offset="0.88" style="stop-color:rgb(158,170,250);stop-opacity:0.86"/><stop offset="0.95" style="stop-color:rgb(158,170,250);stop-opacity:0.53"/><stop offset="1" style="stop-color:rgb(158,170,250);stop-opacity:0.15"/></linearGradient>
        <linearGradient id="_Linear9" x1="0" y1="0" x2="1" y2="0" gradientUnits="userSpaceOnUse" gradientTransform="matrix(-3.52693e-15,143.686,57.5992,8.79822e-15,942.705,555.556)"><stop offset="0" style="stop-color:rgb(158,170,250);stop-opacity:0.25"/><stop offset="0.69" style="stop-color:rgb(158,170,250);stop-opacity:1"/><stop offset="0.88" style="stop-color:rgb(158,170,250);stop-opacity:0.86"/><stop offset="0.95" style="stop-color:rgb(158,170,250);stop-opacity:0.53"/><stop offset="1" style="stop-color:rgb(158,170,250);stop-opacity:0.15"/></linearGradient>
        <radialGradient id="_Radial10" cx="0" cy="0" r="1" gradientUnits="userSpaceOnUse" gradientTransform="matrix(107.039,0,0,159.444,948.909,699.242)"><stop offset="0" style="stop-color:rgb(125,178,248);stop-opacity:0.12"/><stop offset="0.65" style="stop-color:rgb(130,177,248);stop-opacity:0.15"/><stop offset="1" style="stop-color:rgb(158,170,250);stop-opacity:0.31"/></radialGradient>
        <linearGradient id="_Linear11" x1="0" y1="0" x2="1" y2="0" gradientUnits="userSpaceOnUse" gradientTransform="matrix(1.8208e-14,297.36,-297.36,1.8208e-14,1176.68,702.514)"><stop offset="0" style="stop-color:rgb(158,170,250);stop-opacity:0.5"/><stop offset="0.52" style="stop-color:rgb(181,190,251);stop-opacity:0.62"/><stop offset="1" style="stop-color:white;stop-opacity:1"/></linearGradient>
        <linearGradient id="_Linear12" x1="0" y1="0" x2="1" y2="0" gradientUnits="userSpaceOnUse" gradientTransform="matrix(1.8208e-14,297.36,-297.36,1.8208e-14,1160.17,702.514)"><stop offset="0" style="stop-color:rgb(158,170,250);stop-opacity:0.5"/><stop offset="0.52" style="stop-color:rgb(181,190,251);stop-opacity:0.62"/><stop offset="1" style="stop-color:white;stop-opacity:1"/></linearGradient>
        <linearGradient id="_Linear13" x1="0" y1="0" x2="1" y2="0" gradientUnits="userSpaceOnUse" gradientTransform="matrix(1.8208e-14,297.36,-297.36,1.8208e-14,1176.68,702.514)"><stop offset="0" style="stop-color:rgb(158,170,250);stop-opacity:0.5"/><stop offset="0.52" style="stop-color:rgb(181,190,251);stop-opacity:0.62"/><stop offset="1" style="stop-color:white;stop-opacity:1"/></linearGradient>
        <linearGradient id="_Linear14" x1="0" y1="0" x2="1" y2="0" gradientUnits="userSpaceOnUse" gradientTransform="matrix(1.8208e-14,297.36,-297.36,1.8208e-14,1183.51,703.583)"><stop offset="0" style="stop-color:rgb(158,170,250);stop-opacity:0.5"/><stop offset="0.52" style="stop-color:rgb(181,190,251);stop-opacity:0.62"/><stop offset="1" style="stop-color:white;stop-opacity:1"/></linearGradient>
        <linearGradient id="_Linear15" x1="0" y1="0" x2="1" y2="0" gradientUnits="userSpaceOnUse" gradientTransform="matrix(1.8208e-14,297.36,-297.36,1.8208e-14,1182.1,707.459)"><stop offset="0" style="stop-color:rgb(158,170,250);stop-opacity:0.5"/><stop offset="0.52" style="stop-color:rgb(181,190,251);stop-opacity:0.62"/><stop offset="1" style="stop-color:white;stop-opacity:1"/></linearGradient>
        <linearGradient id="_Linear16" x1="0" y1="0" x2="1" y2="0" gradientUnits="userSpaceOnUse" gradientTransform="matrix(1.8208e-14,297.36,-297.36,1.8208e-14,1174.16,708.431)"><stop offset="0" style="stop-color:rgb(158,170,250);stop-opacity:0.5"/><stop offset="0.52" style="stop-color:rgb(181,190,251);stop-opacity:0.62"/><stop offset="1" style="stop-color:white;stop-opacity:1"/></linearGradient>
        <linearGradient id="_Linear17" x1="0" y1="0" x2="1" y2="0" gradientUnits="userSpaceOnUse" gradientTransform="matrix(1.8208e-14,297.36,-297.36,1.8208e-14,1163.97,709.408)"><stop offset="0" style="stop-color:rgb(158,170,250);stop-opacity:0.5"/><stop offset="0.52" style="stop-color:rgb(181,190,251);stop-opacity:0.62"/><stop offset="1" style="stop-color:white;stop-opacity:1"/></linearGradient>
        <linearGradient id="_Linear18" x1="0" y1="0" x2="1" y2="0" gradientUnits="userSpaceOnUse" gradientTransform="matrix(1.8208e-14,297.36,-297.36,1.8208e-14,1138.82,711.113)"><stop offset="0" style="stop-color:rgb(158,170,250);stop-opacity:0.5"/><stop offset="0.52" style="stop-color:rgb(181,190,251);stop-opacity:0.62"/><stop offset="1" style="stop-color:white;stop-opacity:1"/></linearGradient>
        <linearGradient id="_Linear19" x1="0" y1="0" x2="1" y2="0" gradientUnits="userSpaceOnUse" gradientTransform="matrix(1.8208e-14,297.36,-297.36,1.8208e-14,1151.02,710.631)"><stop offset="0" style="stop-color:rgb(158,170,250);stop-opacity:0.5"/><stop offset="0.52" style="stop-color:rgb(181,190,251);stop-opacity:0.62"/><stop offset="1" style="stop-color:white;stop-opacity:1"/></linearGradient>
        <linearGradient id="_Linear20" x1="0" y1="0" x2="1" y2="0" gradientUnits="userSpaceOnUse" gradientTransform="matrix(1.8208e-14,297.36,-297.36,1.8208e-14,1126.55,711.58)"><stop offset="0" style="stop-color:rgb(158,170,250);stop-opacity:0.5"/><stop offset="0.52" style="stop-color:rgb(181,190,251);stop-opacity:0.62"/><stop offset="1" style="stop-color:white;stop-opacity:1"/></linearGradient>
        <linearGradient id="_Linear21" x1="0" y1="0" x2="1" y2="0" gradientUnits="userSpaceOnUse" gradientTransform="matrix(1.8208e-14,297.36,-297.36,1.8208e-14,1111.49,712.081)"><stop offset="0" style="stop-color:rgb(158,170,250);stop-opacity:0.5"/><stop offset="0.52" style="stop-color:rgb(181,190,251);stop-opacity:0.62"/><stop offset="1" style="stop-color:white;stop-opacity:1"/></linearGradient>
        <linearGradient id="_Linear22" x1="0" y1="0" x2="1" y2="0" gradientUnits="userSpaceOnUse" gradientTransform="matrix(1.8208e-14,297.36,-297.36,1.8208e-14,1098.19,712.152)"><stop offset="0" style="stop-color:rgb(158,170,250);stop-opacity:0.5"/><stop offset="0.52" style="stop-color:rgb(181,190,251);stop-opacity:0.62"/><stop offset="1" style="stop-color:white;stop-opacity:1"/></linearGradient>
        <linearGradient id="_Linear23" x1="0" y1="0" x2="1" y2="0" gradientUnits="userSpaceOnUse" gradientTransform="matrix(1.8208e-14,297.36,-297.36,1.8208e-14,1101.7,698.545)"><stop offset="0" style="stop-color:rgb(158,170,250);stop-opacity:0.5"/><stop offset="0.52" style="stop-color:rgb(181,190,251);stop-opacity:0.62"/><stop offset="1" style="stop-color:white;stop-opacity:1"/></linearGradient>
        <linearGradient id="_Linear24" x1="0" y1="0" x2="1" y2="0" gradientUnits="userSpaceOnUse" gradientTransform="matrix(1.8208e-14,297.36,-297.36,1.8208e-14,1080.64,712.01)"><stop offset="0" style="stop-color:rgb(158,170,250);stop-opacity:0.5"/><stop offset="0.52" style="stop-color:rgb(181,190,251);stop-opacity:0.62"/><stop offset="1" style="stop-color:white;stop-opacity:1"/></linearGradient>
        <linearGradient id="_Linear25" x1="0" y1="0" x2="1" y2="0" gradientUnits="userSpaceOnUse" gradientTransform="matrix(1.8208e-14,297.36,-297.36,1.8208e-14,1080.64,698.545)"><stop offset="0" style="stop-color:rgb(158,170,250);stop-opacity:0.5"/><stop offset="0.52" style="stop-color:rgb(181,190,251);stop-opacity:0.62"/><stop offset="1" style="stop-color:white;stop-opacity:1"/></linearGradient>
        <linearGradient id="_Linear26" x1="0" y1="0" x2="1" y2="0" gradientUnits="userSpaceOnUse" gradientTransform="matrix(1.8208e-14,297.36,-297.36,1.8208e-14,1160.17,702.514)"><stop offset="0" style="stop-color:rgb(158,170,250);stop-opacity:0.5"/><stop offset="0.52" style="stop-color:rgb(181,190,251);stop-opacity:0.62"/><stop offset="1" style="stop-color:white;stop-opacity:1"/></linearGradient>
        <linearGradient id="_Linear27" x1="0" y1="0" x2="1" y2="0" gradientUnits="userSpaceOnUse" gradientTransform="matrix(1.8208e-14,297.36,-297.36,1.8208e-14,1149.68,699.025)"><stop offset="0" style="stop-color:rgb(158,170,250);stop-opacity:0.5"/><stop offset="0.52" style="stop-color:rgb(181,190,251);stop-opacity:0.62"/><stop offset="1" style="stop-color:white;stop-opacity:1"/></linearGradient>
        <linearGradient id="_Linear28" x1="0" y1="0" x2="1" y2="0" gradientUnits="userSpaceOnUse" gradientTransform="matrix(1.8208e-14,297.36,-297.36,1.8208e-14,1133.13,699.652)"><stop offset="0" style="stop-color:rgb(158,170,250);stop-opacity:0.5"/><stop offset="0.52" style="stop-color:rgb(181,190,251);stop-opacity:0.62"/><stop offset="1" style="stop-color:white;stop-opacity:1"/></linearGradient>
        <linearGradient id="_Linear29" x1="0" y1="0" x2="1" y2="0" gradientUnits="userSpaceOnUse" gradientTransform="matrix(-1.8208e-14,297.36,297.36,1.8208e-14,1175.72,702.514)"><stop offset="0" style="stop-color:rgb(158,170,250);stop-opacity:0.5"/><stop offset="0.52" style="stop-color:rgb(181,190,251);stop-opacity:0.62"/><stop offset="1" style="stop-color:white;stop-opacity:1"/></linearGradient>
        <linearGradient id="_Linear30" x1="0" y1="0" x2="1" y2="0" gradientUnits="userSpaceOnUse" gradientTransform="matrix(-1.8208e-14,297.36,297.36,1.8208e-14,1159.21,702.514)"><stop offset="0" style="stop-color:rgb(158,170,250);stop-opacity:0.5"/><stop offset="0.52" style="stop-color:rgb(181,190,251);stop-opacity:0.62"/><stop offset="1" style="stop-color:white;stop-opacity:1"/></linearGradient>
        <linearGradient id="_Linear31" x1="0" y1="0" x2="1" y2="0" gradientUnits="userSpaceOnUse" gradientTransform="matrix(-1.8208e-14,297.36,297.36,1.8208e-14,1175.72,702.514)"><stop offset="0" style="stop-color:rgb(158,170,250);stop-opacity:0.5"/><stop offset="0.52" style="stop-color:rgb(181,190,251);stop-opacity:0.62"/><stop offset="1" style="stop-color:white;stop-opacity:1"/></linearGradient>
        <linearGradient id="_Linear32" x1="0" y1="0" x2="1" y2="0" gradientUnits="userSpaceOnUse" gradientTransform="matrix(-1.8208e-14,297.36,297.36,1.8208e-14,1182.55,703.583)"><stop offset="0" style="stop-color:rgb(158,170,250);stop-opacity:0.5"/><stop offset="0.52" style="stop-color:rgb(181,190,251);stop-opacity:0.62"/><stop offset="1" style="stop-color:white;stop-opacity:1"/></linearGradient>
        <linearGradient id="_Linear33" x1="0" y1="0" x2="1" y2="0" gradientUnits="userSpaceOnUse" gradientTransform="matrix(-1.8208e-14,297.36,297.36,1.8208e-14,1181.14,707.459)"><stop offset="0" style="stop-color:rgb(158,170,250);stop-opacity:0.5"/><stop offset="0.52" style="stop-color:rgb(181,190,251);stop-opacity:0.62"/><stop offset="1" style="stop-color:white;stop-opacity:1"/></linearGradient>
        <linearGradient id="_Linear34" x1="0" y1="0" x2="1" y2="0" gradientUnits="userSpaceOnUse" gradientTransform="matrix(-1.8208e-14,297.36,297.36,1.8208e-14,1173.2,708.431)"><stop offset="0" style="stop-color:rgb(158,170,250);stop-opacity:0.5"/><stop offset="0.52" style="stop-color:rgb(181,190,251);stop-opacity:0.62"/><stop offset="1" style="stop-color:white;stop-opacity:1"/></linearGradient>
        <linearGradient id="_Linear35" x1="0" y1="0" x2="1" y2="0" gradientUnits="userSpaceOnUse" gradientTransform="matrix(-1.8208e-14,297.36,297.36,1.8208e-14,1163.01,709.408)"><stop offset="0" style="stop-color:rgb(158,170,250);stop-opacity:0.5"/><stop offset="0.52" style="stop-color:rgb(181,190,251);stop-opacity:0.62"/><stop offset="1" style="stop-color:white;stop-opacity:1"/></linearGradient>
        <linearGradient id="_Linear36" x1="0" y1="0" x2="1" y2="0" gradientUnits="userSpaceOnUse" gradientTransform="matrix(-1.8208e-14,297.36,297.36,1.8208e-14,1137.86,711.113)"><stop offset="0" style="stop-color:rgb(158,170,250);stop-opacity:0.5"/><stop offset="0.52" style="stop-color:rgb(181,190,251);stop-opacity:0.62"/><stop offset="1" style="stop-color:white;stop-opacity:1"/></linearGradient>
        <linearGradient id="_Linear37" x1="0" y1="0" x2="1" y2="0" gradientUnits="userSpaceOnUse" gradientTransform="matrix(-1.8208e-14,297.36,297.36,1.8208e-14,1150.06,710.631)"><stop offset="0" style="stop-color:rgb(158,170,250);stop-opacity:0.5"/><stop offset="0.52" style="stop-color:rgb(181,190,251);stop-opacity:0.62"/><stop offset="1" style="stop-color:white;stop-opacity:1"/></linearGradient>
        <linearGradient id="_Linear38" x1="0" y1="0" x2="1" y2="0" gradientUnits="userSpaceOnUse" gradientTransform="matrix(-1.8208e-14,297.36,297.36,1.8208e-14,1125.59,711.58)"><stop offset="0" style="stop-color:rgb(158,170,250);stop-opacity:0.5"/><stop offset="0.52" style="stop-color:rgb(181,190,251);stop-opacity:0.62"/><stop offset="1" style="stop-color:white;stop-opacity:1"/></linearGradient>
        <linearGradient id="_Linear39" x1="0" y1="0" x2="1" y2="0" gradientUnits="userSpaceOnUse" gradientTransform="matrix(-1.8208e-14,297.36,297.36,1.8208e-14,1110.53,712.081)"><stop offset="0" style="stop-color:rgb(158,170,250);stop-opacity:0.5"/><stop offset="0.52" style="stop-color:rgb(181,190,251);stop-opacity:0.62"/><stop offset="1" style="stop-color:white;stop-opacity:1"/></linearGradient>
        <linearGradient id="_Linear40" x1="0" y1="0" x2="1" y2="0" gradientUnits="userSpaceOnUse" gradientTransform="matrix(-1.8208e-14,297.36,297.36,1.8208e-14,1097.23,712.152)"><stop offset="0" style="stop-color:rgb(158,170,250);stop-opacity:0.5"/><stop offset="0.52" style="stop-color:rgb(181,190,251);stop-opacity:0.62"/><stop offset="1" style="stop-color:white;stop-opacity:1"/></linearGradient>
        <linearGradient id="_Linear41" x1="0" y1="0" x2="1" y2="0" gradientUnits="userSpaceOnUse" gradientTransform="matrix(-1.8208e-14,297.36,297.36,1.8208e-14,1100.74,698.545)"><stop offset="0" style="stop-color:rgb(158,170,250);stop-opacity:0.5"/><stop offset="0.52" style="stop-color:rgb(181,190,251);stop-opacity:0.62"/><stop offset="1" style="stop-color:white;stop-opacity:1"/></linearGradient>
        <linearGradient id="_Linear42" x1="0" y1="0" x2="1" y2="0" gradientUnits="userSpaceOnUse" gradientTransform="matrix(-1.8208e-14,297.36,297.36,1.8208e-14,1159.21,702.514)"><stop offset="0" style="stop-color:rgb(158,170,250);stop-opacity:0.5"/><stop offset="0.52" style="stop-color:rgb(181,190,251);stop-opacity:0.62"/><stop offset="1" style="stop-color:white;stop-opacity:1"/></linearGradient>
        <linearGradient id="_Linear43" x1="0" y1="0" x2="1" y2="0" gradientUnits="userSpaceOnUse" gradientTransform="matrix(-1.8208e-14,297.36,297.36,1.8208e-14,1148.72,699.025)"><stop offset="0" style="stop-color:rgb(158,170,250);stop-opacity:0.5"/><stop offset="0.52" style="stop-color:rgb(181,190,251);stop-opacity:0.62"/><stop offset="1" style="stop-color:white;stop-opacity:1"/></linearGradient>
        <linearGradient id="_Linear44" x1="0" y1="0" x2="1" y2="0" gradientUnits="userSpaceOnUse" gradientTransform="matrix(-1.8208e-14,297.36,297.36,1.8208e-14,1132.17,699.652)"><stop offset="0" style="stop-color:rgb(158,170,250);stop-opacity:0.5"/><stop offset="0.52" style="stop-color:rgb(181,190,251);stop-opacity:0.62"/><stop offset="1" style="stop-color:white;stop-opacity:1"/></linearGradient>
    </defs>
</svg>
