<?xml version="1.0" encoding="UTF-8" standalone="no"?>
<!DOCTYPE svg PUBLIC "-//W3C//DTD SVG 1.1//EN" "http://www.w3.org/Graphics/SVG/1.1/DTD/svg11.dtd">
<svg width="100%" height="100%" viewBox="0 0 1080 100" version="1.1" xmlns="http://www.w3.org/2000/svg" xmlnsXlink="http://www.w3.org/1999/xlink" xmlSpace="preserve" xmlnsSerif="http://www.serif.com/" style="fill-rule:evenodd;clip-rule:evenodd;stroke-linejoin:round;stroke-miterlimit:2;">
    <g transform="matrix(0.5,0,0,0.5,0,50)">
        <path d="M2160,100L0,100L0,50C18,50 43.455,32 54,32C64.545,32 90,50 108,50C126,50 151.455,32 162,32C172.545,32 198,50 216,50C234,50 259.455,32 270,32C280.545,32 306,50 324,50C342,50 367.455,32 378,32C388.545,32 414,50 432,50C450,50 475.455,32 486,32C496.545,32 522,50 540,50C558,50 583.455,32 594,32C604.545,32 630,50 648,50C666,50 691.455,32 702,32C712.545,32 738,50 756,50C774,50 799.455,32 810,32C820.545,32 846,50 864,50C882,50 907.455,32 918,32C928.545,32 954,50 972,50C990,50 1015.46,32 1026,32C1036.55,32 1062,50 1080,50C1098,50 1123.45,32 1134,32C1144.55,32 1170,50 1188,50C1206,50 1231.45,32 1242,32C1252.55,32 1278,50 1296,50C1314,50 1339.45,32 1350,32C1360.55,32 1386,50 1404,50C1422,50 1447.45,32 1458,32C1468.55,32 1494,50 1512,50C1530,50 1555.45,32 1566,32C1576.55,32 1602,50 1620,50C1638,50 1663.45,32 1674,32C1684.55,32 1710,50 1728,50C1746,50 1771.45,32 1782,32C1792.55,32 1818,50 1836,50C1854,50 1879.45,32 1890,32C1900.55,32 1926,50 1944,50C1962,50 1987.46,32 1998,32C2008.55,32 2034,50 2052,50C2070,50 2095.45,32 2106,32C2116.55,32 2142,50 2160,50L2160,100Z" style="fill:#47B5FF;"/>
    </g>
</svg>
